<svg width="156" height="83" viewBox="0 0 156 83" fill="none" xmlns="http://www.w3.org/2000/svg">
<g filter="url(#filter0_i_1_4)">
<path d="M6.78402 23.328C6.42135 23.328 6.06935 23.3173 5.72802 23.296C5.40802 23.2747 5.09868 23.2427 4.80002 23.2C3.09335 22.9227 1.86668 22.4853 1.12002 21.888C0.373352 21.2907 1.8239e-05 20.6293 1.8239e-05 19.904C1.8239e-05 19.264 0.245352 18.624 0.736018 17.984C1.24802 17.3227 1.93068 16.7253 2.78402 16.192C3.65868 15.6373 4.66135 15.2 5.79202 14.88C6.92269 14.5387 8.12802 14.368 9.40802 14.368C9.74935 14.368 10.144 14.4 10.592 14.464C11.04 14.5067 11.328 14.56 11.456 14.624C11.584 14.688 11.648 14.7733 11.648 14.88C11.648 15.0293 11.52 15.104 11.264 15.104H11.072C10.8587 15.104 10.6347 15.0933 10.4 15.072C10.1654 15.0293 9.93069 15.008 9.69602 15.008C8.67202 15.008 7.70135 15.1573 6.78402 15.456C5.86669 15.7547 5.05602 16.1387 4.35202 16.608C3.64802 17.0773 3.09335 17.6 2.68802 18.176C2.28268 18.7307 2.08002 19.2747 2.08002 19.808C2.08002 20.4053 2.34669 20.9387 2.88002 21.408C3.43469 21.8773 4.33069 22.208 5.56802 22.4C5.80269 22.4213 6.04802 22.4427 6.30402 22.464C6.56002 22.5067 6.80535 22.528 7.04002 22.528C8.21335 22.528 9.33335 22.336 10.4 21.952C11.4667 21.568 12.416 21.0667 13.248 20.448C14.1014 19.808 14.7734 19.1147 15.264 18.368C15.7547 17.6213 16 16.896 16 16.192C16 15.68 15.8507 15.2 15.552 14.752C15.2747 14.304 14.8054 13.9093 14.144 13.568C13.376 13.184 12.544 12.864 11.648 12.608C10.7734 12.3307 9.88802 12.064 8.99202 11.808C8.09602 11.552 7.24269 11.264 6.43202 10.944C5.62135 10.624 4.90669 10.208 4.28802 9.696C3.84002 9.33334 3.50935 8.91734 3.29602 8.448C3.10402 7.97867 3.00802 7.488 3.00802 6.976C3.00802 6.35734 3.14668 5.74934 3.42402 5.152C3.70135 4.53334 4.07468 3.968 4.54402 3.456C5.29069 2.66667 6.16535 2.02667 7.16802 1.536C8.17069 1.024 9.22669 0.640003 10.336 0.384003C11.4454 0.128003 12.5227 3.8147e-06 13.568 3.8147e-06H13.696C15.7227 3.8147e-06 17.1947 0.320004 18.112 0.960003C19.0507 1.57867 19.52 2.29334 19.52 3.104C19.52 3.744 19.2427 4.384 18.688 5.024C18.1334 5.64267 17.3547 6.16534 16.352 6.592C15.3494 6.99734 14.1547 7.2 12.768 7.2H12.64C12.512 7.2 12.3947 7.14667 12.288 7.04C12.2027 6.912 12.16 6.80534 12.16 6.72C12.16 6.61334 12.2134 6.56 12.32 6.56C13.2587 6.56 14.144 6.34667 14.976 5.92C15.8294 5.49334 16.512 4.97067 17.024 4.352C17.5574 3.712 17.824 3.104 17.824 2.528C17.824 2.03734 17.568 1.61067 17.056 1.248C16.5654 0.864003 15.7227 0.672003 14.528 0.672003H14.432C13.408 0.672003 12.3627 0.84267 11.296 1.184C10.2507 1.52534 9.28002 1.97334 8.38402 2.528C7.48802 3.08267 6.76269 3.70134 6.20802 4.384C5.65335 5.04534 5.37602 5.71734 5.37602 6.4C5.37602 6.80534 5.49335 7.2 5.72802 7.584C5.96269 7.968 6.34669 8.32 6.88002 8.64C7.56269 9.06667 8.39469 9.41867 9.37602 9.696C10.3787 9.97334 11.4134 10.2613 12.48 10.56C13.568 10.8373 14.5814 11.1787 15.52 11.584C16.4587 11.9893 17.216 12.5227 17.792 13.184C18.3894 13.824 18.688 14.656 18.688 15.68C18.688 15.8933 18.6774 16.1173 18.656 16.352C18.6347 16.5867 18.592 16.8213 18.528 17.056C18.2507 18.1867 17.696 19.1573 16.864 19.968C16.032 20.7573 15.04 21.3973 13.888 21.888C12.736 22.3787 11.5307 22.7413 10.272 22.976C9.03469 23.2107 7.87202 23.328 6.78402 23.328ZM23.6875 22.208C23.2609 22.208 22.8982 22.0587 22.5995 21.76C22.3009 21.4613 22.1515 21.0987 22.1515 20.672C22.1515 20.2453 22.3009 19.8827 22.5995 19.584C22.8982 19.2853 23.2609 19.136 23.6875 19.136C24.1142 19.136 24.4769 19.2853 24.7755 19.584C25.0742 19.8827 25.2235 20.2453 25.2235 20.672C25.2235 21.0987 25.0742 21.4613 24.7755 21.76C24.4769 22.0587 24.1142 22.208 23.6875 22.208ZM34.1265 23.328C33.7639 23.328 33.4119 23.3173 33.0705 23.296C32.7505 23.2747 32.4412 23.2427 32.1425 23.2C30.4359 22.9227 29.2092 22.4853 28.4625 21.888C27.7159 21.2907 27.3425 20.6293 27.3425 19.904C27.3425 19.264 27.5879 18.624 28.0785 17.984C28.5905 17.3227 29.2732 16.7253 30.1265 16.192C31.0012 15.6373 32.0039 15.2 33.1345 14.88C34.2652 14.5387 35.4705 14.368 36.7505 14.368C37.0919 14.368 37.4865 14.4 37.9345 14.464C38.3825 14.5067 38.6705 14.56 38.7985 14.624C38.9265 14.688 38.9905 14.7733 38.9905 14.88C38.9905 15.0293 38.8625 15.104 38.6065 15.104H38.4145C38.2012 15.104 37.9772 15.0933 37.7425 15.072C37.5079 15.0293 37.2732 15.008 37.0385 15.008C36.0145 15.008 35.0439 15.1573 34.1265 15.456C33.2092 15.7547 32.3985 16.1387 31.6945 16.608C30.9905 17.0773 30.4359 17.6 30.0305 18.176C29.6252 18.7307 29.4225 19.2747 29.4225 19.808C29.4225 20.4053 29.6892 20.9387 30.2225 21.408C30.7772 21.8773 31.6732 22.208 32.9105 22.4C33.1452 22.4213 33.3905 22.4427 33.6465 22.464C33.9025 22.5067 34.1479 22.528 34.3825 22.528C35.5559 22.528 36.6759 22.336 37.7425 21.952C38.8092 21.568 39.7585 21.0667 40.5905 20.448C41.4439 19.808 42.1159 19.1147 42.6065 18.368C43.0972 17.6213 43.3425 16.896 43.3425 16.192C43.3425 15.68 43.1932 15.2 42.8945 14.752C42.6172 14.304 42.1479 13.9093 41.4865 13.568C40.7185 13.184 39.8865 12.864 38.9905 12.608C38.1159 12.3307 37.2305 12.064 36.3345 11.808C35.4385 11.552 34.5852 11.264 33.7745 10.944C32.9639 10.624 32.2492 10.208 31.6305 9.696C31.1825 9.33334 30.8519 8.91734 30.6385 8.448C30.4465 7.97867 30.3505 7.488 30.3505 6.976C30.3505 6.35734 30.4892 5.74934 30.7665 5.152C31.0439 4.53334 31.4172 3.968 31.8865 3.456C32.6332 2.66667 33.5079 2.02667 34.5105 1.536C35.5132 1.024 36.5692 0.640003 37.6785 0.384003C38.7879 0.128003 39.8652 3.8147e-06 40.9105 3.8147e-06H41.0385C43.0652 3.8147e-06 44.5372 0.320004 45.4545 0.960003C46.3932 1.57867 46.8625 2.29334 46.8625 3.104C46.8625 3.744 46.5852 4.384 46.0305 5.024C45.4759 5.64267 44.6972 6.16534 43.6945 6.592C42.6919 6.99734 41.4972 7.2 40.1105 7.2H39.9825C39.8545 7.2 39.7372 7.14667 39.6305 7.04C39.5452 6.912 39.5025 6.80534 39.5025 6.72C39.5025 6.61334 39.5559 6.56 39.6625 6.56C40.6012 6.56 41.4865 6.34667 42.3185 5.92C43.1719 5.49334 43.8545 4.97067 44.3665 4.352C44.8999 3.712 45.1665 3.104 45.1665 2.528C45.1665 2.03734 44.9105 1.61067 44.3985 1.248C43.9079 0.864003 43.0652 0.672003 41.8705 0.672003H41.7745C40.7505 0.672003 39.7052 0.84267 38.6385 1.184C37.5932 1.52534 36.6225 1.97334 35.7265 2.528C34.8305 3.08267 34.1052 3.70134 33.5505 4.384C32.9959 5.04534 32.7185 5.71734 32.7185 6.4C32.7185 6.80534 32.8359 7.2 33.0705 7.584C33.3052 7.968 33.6892 8.32 34.2225 8.64C34.9052 9.06667 35.7372 9.41867 36.7185 9.696C37.7212 9.97334 38.7559 10.2613 39.8225 10.56C40.9105 10.8373 41.9239 11.1787 42.8625 11.584C43.8012 11.9893 44.5585 12.5227 45.1345 13.184C45.7319 13.824 46.0305 14.656 46.0305 15.68C46.0305 15.8933 46.0199 16.1173 45.9985 16.352C45.9772 16.5867 45.9345 16.8213 45.8705 17.056C45.5932 18.1867 45.0385 19.1573 44.2065 19.968C43.3745 20.7573 42.3825 21.3973 41.2305 21.888C40.0785 22.3787 38.8732 22.7413 37.6145 22.976C36.3772 23.2107 35.2145 23.328 34.1265 23.328ZM51.03 22.208C50.6033 22.208 50.2407 22.0587 49.942 21.76C49.6433 21.4613 49.494 21.0987 49.494 20.672C49.494 20.2453 49.6433 19.8827 49.942 19.584C50.2407 19.2853 50.6033 19.136 51.03 19.136C51.4567 19.136 51.8194 19.2853 52.118 19.584C52.4167 19.8827 52.566 20.2453 52.566 20.672C52.566 21.0987 52.4167 21.4613 52.118 21.76C51.8194 22.0587 51.4567 22.208 51.03 22.208ZM58.3965 72.84C57.0739 72.84 55.8365 72.6693 54.6845 72.328C53.5325 71.9867 52.5939 71.4 51.8685 70.568C51.5699 70.2053 51.3245 69.768 51.1325 69.256C50.9619 68.7227 50.8765 68.136 50.8765 67.496C50.8765 66.92 50.9512 66.3653 51.1005 65.832C51.3779 64.872 51.8899 64.008 52.6365 63.24C53.3832 62.4507 54.2472 61.768 55.2285 61.192C56.2312 60.616 57.2339 60.1467 58.2365 59.784C59.2605 59.4213 60.1779 59.1653 60.9885 59.016C60.3912 58.9093 59.7725 58.792 59.1325 58.664C58.5139 58.5147 57.9485 58.3013 57.4365 58.024C56.9245 57.7467 56.5192 57.352 56.2205 56.84C54.3432 56.776 52.8179 56.52 51.6445 56.072C50.4712 55.624 49.6179 55.08 49.0845 54.44C48.5512 53.7787 48.2845 53.128 48.2845 52.488C48.2845 51.7627 48.5832 51.144 49.1805 50.632C49.7779 50.0987 50.5992 49.832 51.6445 49.832C52.2632 49.832 52.9032 49.9813 53.5645 50.28C54.2472 50.5573 54.7805 50.8773 55.1645 51.24C55.4205 51.496 55.5485 51.688 55.5485 51.816C55.5485 51.9227 55.4739 51.976 55.3245 51.976C55.1965 51.976 55.0792 51.944 54.9725 51.88C54.4392 51.56 53.8952 51.336 53.3405 51.208C52.8072 51.0587 52.2739 50.984 51.7405 50.984C51.0792 50.984 50.5459 51.1653 50.1405 51.528C49.7565 51.8693 49.5645 52.2853 49.5645 52.776C49.5645 53.224 49.7779 53.704 50.2045 54.216C50.6312 54.7067 51.3139 55.1333 52.2525 55.496C53.1912 55.8587 54.4285 56.0933 55.9645 56.2C55.8579 55.816 55.8045 55.432 55.8045 55.048C55.8045 53.9173 56.0712 52.9467 56.6045 52.136C57.1379 51.304 57.8312 50.6107 58.6845 50.056C59.5592 49.5013 60.4979 49.096 61.5005 48.84C62.5245 48.5627 63.5272 48.424 64.5085 48.424C66.0872 48.424 67.3245 48.744 68.2205 49.384C69.1379 50.024 69.5965 50.7813 69.5965 51.656C69.5965 52.424 69.1912 53.2027 68.3805 53.992C67.5699 54.76 66.2792 55.4107 64.5085 55.944C62.7379 56.4773 60.4125 56.776 57.5325 56.84C57.9165 57.288 58.4925 57.6613 59.2605 57.96C60.0285 58.2373 61.0099 58.376 62.2045 58.376C62.6952 58.376 63.2285 58.3547 63.8045 58.312C64.3805 58.248 64.9992 58.152 65.6605 58.024H65.7885C66.3645 58.024 66.6525 58.2267 66.6525 58.632C66.6525 58.9733 66.4925 59.336 66.1725 59.72C65.8739 60.104 65.6072 60.296 65.3725 60.296H64.8925C63.8259 60.296 62.6739 60.392 61.4365 60.584C60.2205 60.776 59.0259 61.096 57.8525 61.544C56.6792 61.992 55.6232 62.5893 54.6845 63.336C53.7459 64.0827 53.0419 65.0213 52.5725 66.152C52.2952 66.8347 52.1565 67.4427 52.1565 67.976C52.1565 68.7013 52.3912 69.2667 52.8605 69.672C53.3512 70.0773 53.9805 70.3653 54.7485 70.536C55.5165 70.7067 56.3272 70.792 57.1805 70.792C58.0552 70.792 58.9085 70.7387 59.7405 70.632C60.5939 70.504 61.3085 70.3653 61.8845 70.216C63.4205 69.832 64.8179 69.288 66.0765 68.584C67.3352 67.8587 68.2419 67.1653 68.7965 66.504C69.2872 65.928 69.5325 65.3947 69.5325 64.904C69.5325 64.392 69.2872 63.9973 68.7965 63.72C68.3059 63.4213 67.6765 63.272 66.9085 63.272C65.9059 63.272 64.7645 63.56 63.4845 64.136C62.2045 64.6907 61.0099 65.608 59.9005 66.888C59.7085 67.1227 59.5485 67.24 59.4205 67.24C59.3139 67.24 59.2605 67.176 59.2605 67.048C59.2605 66.92 59.3139 66.76 59.4205 66.568C59.5272 66.3547 59.6979 66.1093 59.9325 65.832C60.5939 65.0853 61.3725 64.4453 62.2685 63.912C63.1859 63.3787 64.1245 62.9627 65.0845 62.664C66.0445 62.3653 66.9192 62.216 67.7085 62.216H67.7725C68.8392 62.216 69.6499 62.5253 70.2045 63.144C70.7805 63.7413 71.0685 64.4667 71.0685 65.32C71.0685 65.8533 70.9619 66.3973 70.7485 66.952C70.5352 67.5067 70.2045 68.04 69.7565 68.552C69.0952 69.32 68.1779 70.0347 67.0045 70.696C65.8312 71.336 64.4979 71.848 63.0045 72.232C61.5325 72.6373 59.9965 72.84 58.3965 72.84ZM57.1805 56.232H57.2765C59.7299 56.232 61.6819 56.04 63.1325 55.656C64.6045 55.272 65.6605 54.792 66.3005 54.216C66.9619 53.64 67.2925 53.064 67.2925 52.488C67.2925 51.8693 66.9725 51.336 66.3325 50.888C65.6925 50.4187 64.8499 50.184 63.8045 50.184C63.0792 50.184 62.3219 50.3013 61.5325 50.536C60.7432 50.7493 59.9965 51.08 59.2925 51.528C58.6099 51.9547 58.0445 52.4773 57.5965 53.096C57.1699 53.7147 56.9565 54.4187 56.9565 55.208C56.9565 55.592 57.0312 55.9333 57.1805 56.232ZM73.4548 71.304C73.1561 71.304 72.9001 71.1973 72.6868 70.984C72.4948 70.7493 72.3988 70.3653 72.3988 69.832C72.3988 69.7467 72.3988 69.6613 72.3988 69.576C72.3988 69.4693 72.4094 69.3627 72.4308 69.256C72.4734 68.872 72.5161 68.3387 72.5588 67.656C72.6228 66.9733 72.6654 66.2053 72.6868 65.352C72.7294 64.4987 72.7508 63.6453 72.7508 62.792C72.7508 61.896 72.7188 61.0533 72.6548 60.264C72.6121 59.4533 72.5268 58.8133 72.3988 58.344C72.5694 58.3013 72.7934 58.184 73.0708 57.992C73.3481 57.8 73.6361 57.672 73.9348 57.608C73.9988 57.5867 74.0841 57.576 74.1908 57.576C74.5534 57.576 74.7774 57.768 74.8628 58.152C74.9694 58.536 75.0228 59.0053 75.0228 59.56C75.0228 59.944 75.0121 60.4027 74.9908 60.936C74.9908 61.448 74.9694 61.896 74.9268 62.28C75.1614 61.5973 75.4174 61.0107 75.6948 60.52C75.9721 60.008 76.2708 59.5173 76.5908 59.048C76.9108 58.5573 77.2521 58.0773 77.6148 57.608C77.9774 57.1173 78.4681 56.872 79.0868 56.872C79.7268 56.872 80.1428 57.0853 80.3348 57.512C80.5268 57.9387 80.6228 58.408 80.6228 58.92C80.6228 59.1973 80.6121 59.464 80.5908 59.72C80.5694 59.9547 80.5481 60.1787 80.5268 60.392C80.5268 60.5413 80.4948 60.936 80.4308 61.576C80.3668 62.1947 80.3028 62.9307 80.2388 63.784C80.1748 64.616 80.1428 65.4587 80.1428 66.312C80.1428 66.5467 80.1534 66.8773 80.1748 67.304C80.1961 67.7093 80.2388 68.1253 80.3028 68.552C80.3668 68.9573 80.4734 69.3093 80.6228 69.608C80.7934 69.8853 81.0174 70.024 81.2948 70.024C81.4654 70.024 81.6574 69.96 81.8708 69.832C82.1054 69.6613 82.3081 69.4373 82.4788 69.16C82.6708 68.8827 82.8201 68.6053 82.9268 68.328C83.0121 68.136 83.0974 67.9227 83.1828 67.688C83.2681 67.4533 83.3428 67.208 83.4068 66.952C83.4921 66.696 83.6094 66.568 83.7588 66.568C83.8654 66.568 83.9188 66.6747 83.9188 66.888V67.016C83.9188 67.1653 83.8868 67.3573 83.8228 67.592C83.7801 67.8267 83.7161 68.0613 83.6308 68.296C83.3748 69.0853 82.9908 69.7787 82.4788 70.376C81.9881 70.952 81.2948 71.24 80.3988 71.24C79.8014 71.24 79.3321 71.016 78.9908 70.568C78.6708 70.0987 78.4361 69.5013 78.2868 68.776C78.2014 68.3707 78.1374 67.9653 78.0948 67.56C78.0734 67.1547 78.0628 66.7493 78.0628 66.344C78.0628 65.3413 78.1268 64.3493 78.2548 63.368C78.4041 62.3653 78.4788 61.4053 78.4788 60.488C78.4788 60.1893 78.4361 59.912 78.3508 59.656C78.2868 59.3787 78.1268 59.24 77.8708 59.24C77.6148 59.24 77.3054 59.4853 76.9428 59.976C76.5801 60.4453 76.2068 61.1387 75.8228 62.056C75.4388 62.952 75.1188 63.976 74.8628 65.128C74.6068 66.2587 74.4788 67.4213 74.4788 68.616C74.4788 69.3413 74.5428 70.0773 74.6708 70.824C74.5214 70.9307 74.3294 71.0373 74.0948 71.144C73.8601 71.2507 73.6468 71.304 73.4548 71.304ZM87.174 71.208C86.534 71.208 86.0114 71.0053 85.606 70.6C85.222 70.1947 84.9234 69.6827 84.71 69.064C84.4967 68.4453 84.3474 67.8053 84.262 67.144C84.198 66.4827 84.166 65.896 84.166 65.384V64.904C84.1874 64.648 84.2087 64.168 84.23 63.464C84.2514 62.76 84.2834 61.9387 84.326 61C84.3687 60.04 84.4327 59.0693 84.518 58.088H83.526C83.3554 58.088 83.27 57.9813 83.27 57.768C83.27 57.6613 83.3127 57.5547 83.398 57.448C83.462 57.32 83.5474 57.256 83.654 57.256H84.582C84.6674 56.2533 84.7634 55.3467 84.87 54.536C84.9767 53.7253 85.1047 53.1493 85.254 52.808C85.3607 52.5733 85.5527 52.3707 85.83 52.2C86.1074 52.008 86.4807 51.912 86.95 51.912C87.078 51.912 87.2167 51.9227 87.366 51.944C87.5367 51.9653 87.6967 51.9973 87.846 52.04C87.7394 52.4027 87.6114 53.064 87.462 54.024C87.334 54.9627 87.2167 56.04 87.11 57.256H89.67C89.862 57.256 89.958 57.3733 89.958 57.608C89.958 57.7147 89.926 57.8213 89.862 57.928C89.798 58.0347 89.702 58.088 89.574 58.088H87.014C86.9074 59.2613 86.822 60.4773 86.758 61.736C86.694 62.9733 86.6514 64.1147 86.63 65.16V65.896C86.63 66.4507 86.6514 67.0587 86.694 67.72C86.7367 68.3813 86.8434 68.9467 87.014 69.416C87.1847 69.8853 87.4407 70.12 87.782 70.12H87.814C87.9847 70.12 88.166 70.0347 88.358 69.864C88.5714 69.6933 88.7954 69.3733 89.03 68.904C89.2007 68.6053 89.35 68.2533 89.478 67.848C89.6274 67.4213 89.7767 66.9733 89.926 66.504C90.0114 66.312 90.0967 66.216 90.182 66.216C90.2887 66.216 90.342 66.344 90.342 66.6V66.728C90.2994 67.2827 90.15 67.912 89.894 68.616C89.638 69.32 89.2754 69.928 88.806 70.44C88.358 70.952 87.814 71.208 87.174 71.208ZM94.46 71.272C93.4787 71.272 92.6894 71.0373 92.092 70.568C91.516 70.0987 91.0894 69.4907 90.812 68.744C90.556 67.976 90.396 67.1653 90.332 66.312C90.3107 66.1413 90.3 65.96 90.3 65.768C90.3 65.576 90.3 65.3947 90.3 65.224C90.3 64.2213 90.4067 63.2187 90.62 62.216C90.8334 61.2133 91.164 60.3067 91.612 59.496C92.0814 58.664 92.668 58.0027 93.372 57.512C94.0974 57 94.9614 56.744 95.964 56.744C96.5827 56.744 97.0307 56.968 97.308 57.416C97.6067 57.864 97.756 58.3333 97.756 58.824C97.756 59.9547 97.5107 60.9467 97.02 61.8C96.5507 62.6533 95.932 63.3573 95.164 63.912C94.4174 64.4667 93.628 64.8613 92.796 65.096C92.8174 65.736 92.892 66.44 93.02 67.208C93.1694 67.9547 93.436 68.6053 93.82 69.16C94.204 69.6933 94.7587 69.96 95.484 69.96C96.1667 69.96 96.7427 69.7573 97.212 69.352C97.6814 68.9253 98.0654 68.3813 98.364 67.72C98.6627 67.0373 98.8867 66.312 99.036 65.544C99.2067 64.776 99.3347 64.04 99.42 63.336C99.5054 62.6107 99.5694 62.0133 99.612 61.544C99.6547 61.096 99.6867 60.6587 99.708 60.232C99.7294 59.784 99.74 59.3573 99.74 58.952C99.74 58.696 99.74 58.44 99.74 58.184C99.74 57.928 99.7187 57.6933 99.676 57.48C99.228 57.1387 98.8867 56.7227 98.652 56.232C98.4387 55.72 98.332 55.24 98.332 54.792C98.332 54.3867 98.4174 54.0453 98.588 53.768C98.78 53.4907 99.0574 53.352 99.42 53.352C99.6547 53.352 99.8894 53.5227 100.124 53.864C100.359 54.2053 100.519 54.728 100.604 55.432C100.647 55.6453 100.668 55.88 100.668 56.136C100.668 56.392 100.668 56.6693 100.668 56.968V57.672C100.903 57.8213 101.169 57.9387 101.468 58.024C101.788 58.1093 102.076 58.152 102.332 58.152C102.545 58.152 102.748 58.12 102.94 58.056C103.132 57.992 103.292 57.8853 103.42 57.736C103.591 57.5013 103.761 57.2773 103.932 57.064C104.124 56.8293 104.497 56.7013 105.052 56.68H105.276C105.425 56.68 105.585 56.6907 105.756 56.712C105.927 56.7333 106.119 56.7653 106.332 56.808C106.076 57.3413 105.863 58.024 105.692 58.856C105.521 59.688 105.372 60.584 105.244 61.544C105.137 62.4827 105.052 63.3893 104.988 64.264C104.945 65.1173 104.924 65.8533 104.924 66.472V66.76C104.924 67.656 105.031 68.4453 105.244 69.128C105.457 69.7893 105.831 70.12 106.364 70.12C106.705 70.12 107.004 69.9813 107.26 69.704C107.516 69.4267 107.74 69.0853 107.932 68.68C108.124 68.2533 108.284 67.848 108.412 67.464C108.54 67.0587 108.636 66.7387 108.7 66.504C108.743 66.312 108.828 66.216 108.956 66.216C109.063 66.216 109.116 66.3333 109.116 66.568V66.728C108.967 68.2 108.551 69.32 107.868 70.088C107.207 70.8347 106.407 71.208 105.468 71.208C104.999 71.208 104.604 71.112 104.284 70.92C103.985 70.728 103.719 70.4613 103.484 70.12C103.143 69.608 102.908 68.904 102.78 68.008C102.652 67.112 102.588 66.152 102.588 65.128C102.588 63.976 102.652 62.8453 102.78 61.736C102.908 60.6267 103.047 59.7093 103.196 58.984C103.111 59.0053 103.025 59.0267 102.94 59.048C102.855 59.048 102.769 59.048 102.684 59.048C102.321 59.048 101.959 58.984 101.596 58.856C101.255 58.728 100.935 58.5573 100.636 58.344C100.615 58.8773 100.572 59.432 100.508 60.008C100.444 60.5627 100.38 61.1173 100.316 61.672C100.231 62.376 100.113 63.1867 99.964 64.104C99.836 65 99.6334 65.896 99.356 66.792C99.1 67.688 98.7374 68.4987 98.268 69.224C97.82 69.9493 97.2334 70.4933 96.508 70.856C95.932 71.1333 95.2494 71.272 94.46 71.272ZM92.796 64.36C93.4574 64.1467 94.0227 63.784 94.492 63.272C94.9827 62.76 95.356 62.1627 95.612 61.48C95.8894 60.776 96.028 60.072 96.028 59.368C96.028 58.9627 95.964 58.5787 95.836 58.216C95.708 57.832 95.4627 57.64 95.1 57.64C94.716 57.64 94.3854 57.832 94.108 58.216C93.852 58.5787 93.6387 59.048 93.468 59.624C93.2974 60.1787 93.1694 60.7653 93.084 61.384C92.9987 62.0027 92.9347 62.568 92.892 63.08C92.8494 63.5707 92.828 63.9333 92.828 64.168C92.8067 64.2107 92.796 64.2747 92.796 64.36ZM108.521 82.056C107.774 82.056 107.252 81.6933 106.953 80.968C106.633 80.2427 106.473 79.3467 106.473 78.28C106.473 77.832 106.494 77.352 106.537 76.84C106.58 76.3493 106.644 75.8587 106.729 75.368C106.836 74.6853 106.985 74.0133 107.177 73.352C107.369 72.6907 107.572 72.0613 107.785 71.464C108.084 70.6107 108.414 69.8107 108.777 69.064C109.161 68.296 109.353 67.4533 109.353 66.536V66.408C109.353 65.1493 109.3 63.976 109.193 62.888C109.108 61.8 108.99 60.8613 108.841 60.072C108.713 59.2827 108.585 58.7067 108.457 58.344C108.884 58.216 109.246 58.0667 109.545 57.896C109.844 57.7253 110.121 57.6293 110.377 57.608H110.537C110.942 57.608 111.198 57.8213 111.305 58.248C111.412 58.6533 111.476 59.144 111.497 59.72C111.518 60.104 111.529 60.6053 111.529 61.224C111.529 61.8427 111.54 62.5253 111.561 63.272C111.86 62.2053 112.212 61.1707 112.617 60.168C113.022 59.1653 113.47 58.344 113.961 57.704C114.452 57.0427 114.953 56.712 115.465 56.712C116.105 56.712 116.596 56.936 116.937 57.384C117.3 57.832 117.556 58.3973 117.705 59.08C117.876 59.7413 117.972 60.4133 117.993 61.096C118.036 61.7573 118.057 62.312 118.057 62.76C118.057 63.8693 117.908 65.032 117.609 66.248C117.332 67.4427 116.884 68.4667 116.265 69.32H116.425C117.364 69.32 118.217 68.8827 118.985 68.008C119.518 67.4107 119.913 66.6853 120.169 65.832C120.425 64.9787 120.606 64.0933 120.713 63.176C120.841 62.2587 120.937 61.4267 121.001 60.68C121.044 60.3813 121.065 60.104 121.065 59.848C121.065 59.5707 121.065 59.3253 121.065 59.112V58.6C120.532 58.3653 120.137 58.024 119.881 57.576C119.646 57.128 119.529 56.7013 119.529 56.296C119.529 55.9973 119.582 55.7413 119.689 55.528C119.817 55.2933 119.998 55.1653 120.233 55.144H120.297C120.596 55.144 120.862 55.3573 121.097 55.784C121.332 56.1893 121.524 56.648 121.673 57.16C121.822 57.6507 121.897 58.0453 121.897 58.344C122.153 58.536 122.43 58.6747 122.729 58.76C123.049 58.8453 123.316 58.888 123.529 58.888C123.806 58.888 123.988 58.8453 124.073 58.76C124.244 58.5893 124.446 58.344 124.681 58.024C124.937 57.704 125.332 57.544 125.865 57.544C126.228 57.544 126.665 57.6507 127.177 57.864C126.921 58.3973 126.686 59.0053 126.473 59.688C126.26 60.3493 126.078 61.0533 125.929 61.8C125.908 61.9707 125.854 62.312 125.769 62.824C125.684 63.336 125.609 63.9227 125.545 64.584C125.481 65.2453 125.449 65.9067 125.449 66.568C125.449 67.5067 125.545 68.3387 125.737 69.064C125.95 69.768 126.334 70.12 126.889 70.12C127.23 70.12 127.529 69.9813 127.785 69.704C128.041 69.4267 128.265 69.0853 128.457 68.68C128.649 68.2533 128.809 67.848 128.937 67.464C129.065 67.0587 129.161 66.7387 129.225 66.504C129.268 66.312 129.353 66.216 129.481 66.216C129.588 66.216 129.641 66.3333 129.641 66.568V66.728C129.492 68.2 129.076 69.32 128.393 70.088C127.732 70.8347 126.932 71.208 125.993 71.208C125.268 71.208 124.702 70.984 124.297 70.536C123.913 70.0667 123.636 69.4693 123.465 68.744C123.316 67.9973 123.241 67.1973 123.241 66.344C123.241 65.4267 123.294 64.5307 123.401 63.656C123.529 62.76 123.657 61.9707 123.785 61.288C123.934 60.6053 124.041 60.136 124.105 59.88C123.508 59.8373 123.038 59.7413 122.697 59.592C122.356 59.4427 122.068 59.2613 121.833 59.048C121.812 59.368 121.78 59.6987 121.737 60.04C121.694 60.3813 121.652 60.7333 121.609 61.096C121.502 61.9493 121.364 62.888 121.193 63.912C121.044 64.9147 120.788 65.8747 120.425 66.792C120.062 67.7093 119.518 68.4667 118.793 69.064C118.068 69.6613 117.3 69.96 116.489 69.96C116.254 69.96 116.02 69.928 115.785 69.864C115.444 70.2267 115.049 70.5147 114.601 70.728C114.153 70.9413 113.652 71.048 113.097 71.048C112.478 71.048 112.009 70.92 111.689 70.664V72.072C111.689 72.7333 111.689 73.3307 111.689 73.864C111.689 74.4187 111.678 74.8667 111.657 75.208C111.593 76.552 111.476 77.6507 111.305 78.504C111.092 79.5493 110.772 80.4027 110.345 81.064C109.918 81.7253 109.342 82.056 108.617 82.056H108.521ZM112.617 70.184C112.958 70.184 113.268 70.0773 113.545 69.864C114.036 69.48 114.43 68.8613 114.729 68.008C115.049 67.1333 115.273 66.2693 115.401 65.416C115.465 65.0533 115.508 64.616 115.529 64.104C115.572 63.592 115.593 63.0693 115.593 62.536C115.593 61.6187 115.518 60.7973 115.369 60.072C115.22 59.3253 114.932 58.952 114.505 58.952C114.249 58.952 113.982 59.176 113.705 59.624C113.449 60.072 113.193 60.6587 112.937 61.384C112.681 62.1093 112.436 62.888 112.201 63.72C111.988 64.5307 111.796 65.3093 111.625 66.056C111.646 66.6747 111.657 67.2933 111.657 67.912C111.657 68.5307 111.657 69.1493 111.657 69.768C111.934 70.0453 112.254 70.184 112.617 70.184ZM108.393 81.032C108.521 81.032 108.649 80.936 108.777 80.744C108.926 80.5733 109.054 80.2853 109.161 79.88C109.31 79.3253 109.406 78.6107 109.449 77.736C109.513 76.8613 109.545 75.944 109.545 74.984C109.545 73.9387 109.524 72.9147 109.481 71.912C109.438 70.9307 109.396 70.1093 109.353 69.448C109.161 69.896 108.948 70.4293 108.713 71.048C108.478 71.6667 108.276 72.3173 108.105 73C107.892 73.768 107.721 74.5467 107.593 75.336C107.444 76.1467 107.369 76.9573 107.369 77.768C107.369 78.4507 107.433 79.1333 107.561 79.816C107.625 80.1147 107.742 80.392 107.913 80.648C108.062 80.904 108.222 81.032 108.393 81.032ZM132.876 54.856C132.471 54.856 132.108 54.7067 131.788 54.408C131.489 54.1093 131.34 53.7467 131.34 53.32C131.34 52.8933 131.489 52.5307 131.788 52.232C132.108 51.9333 132.471 51.784 132.876 51.784C133.303 51.784 133.665 51.9333 133.964 52.232C134.263 52.5307 134.412 52.8933 134.412 53.32C134.412 53.7467 134.263 54.1093 133.964 54.408C133.665 54.7067 133.303 54.856 132.876 54.856ZM132.652 71.208C131.884 71.208 131.276 70.888 130.828 70.248C130.401 69.5867 130.092 68.7547 129.9 67.752C129.729 66.728 129.644 65.6613 129.644 64.552C129.644 63.6347 129.687 62.7493 129.772 61.896C129.879 61.0213 129.996 60.264 130.124 59.624C130.273 58.9627 130.412 58.4933 130.54 58.216C130.668 57.96 130.871 57.7253 131.148 57.512C131.447 57.2773 131.841 57.16 132.332 57.16C132.609 57.16 132.887 57.192 133.164 57.256C132.951 58.0027 132.695 59.0373 132.396 60.36C132.097 61.6827 131.948 63.144 131.948 64.744C131.948 65.2987 131.959 65.896 131.98 66.536C132.001 67.1547 132.055 67.7413 132.14 68.296C132.225 68.8293 132.353 69.2667 132.524 69.608C132.716 69.9493 132.961 70.12 133.26 70.12H133.292C133.463 70.12 133.644 70.0347 133.836 69.864C134.049 69.6933 134.273 69.3733 134.508 68.904C134.828 68.2853 135.127 67.4853 135.404 66.504C135.447 66.312 135.532 66.216 135.66 66.216C135.767 66.216 135.82 66.344 135.82 66.6V66.728C135.777 67.2827 135.628 67.912 135.372 68.616C135.116 69.32 134.753 69.928 134.284 70.44C133.836 70.952 133.292 71.208 132.652 71.208ZM139.175 71.4C138.215 71.4 137.405 71.176 136.743 70.728C136.103 70.2587 135.783 69.4373 135.783 68.264C135.783 68.2213 135.783 68.1253 135.783 67.976C135.805 67.8053 135.826 67.6347 135.847 67.464C135.719 67.2293 135.655 66.9093 135.655 66.504C135.655 66.248 135.698 66.024 135.783 65.832C135.869 65.64 135.997 65.544 136.167 65.544H136.199C136.263 65.544 136.349 65.6187 136.455 65.768C136.733 64.9787 136.989 64.168 137.223 63.336C137.458 62.4827 137.671 61.7253 137.863 61.064C138.077 60.296 138.343 59.4747 138.663 58.6C139.005 57.704 139.538 57.0213 140.263 56.552C140.818 56.1893 141.415 56.008 142.055 56.008C142.098 56.008 142.151 56.0187 142.215 56.04C142.279 56.04 142.333 56.04 142.375 56.04C142.546 56.0613 142.631 56.136 142.631 56.264C142.631 56.4133 142.557 56.488 142.407 56.488C142.173 56.5093 142.002 56.7013 141.895 57.064C141.789 57.4053 141.735 57.8 141.735 58.248C141.735 58.3547 141.735 58.472 141.735 58.6C141.735 58.728 141.746 58.8453 141.767 58.952C141.853 59.656 142.045 60.4347 142.343 61.288C142.642 62.12 142.919 62.9627 143.175 63.816C143.453 64.648 143.591 65.4267 143.591 66.152V66.312C143.591 66.5893 143.57 66.888 143.527 67.208C143.506 67.528 143.442 67.8373 143.335 68.136C143.634 68.1147 143.922 68.0827 144.199 68.04C144.498 67.976 144.765 67.9013 144.999 67.816C145.298 67.688 145.533 67.5387 145.703 67.368C145.895 67.1973 146.055 67.0053 146.183 66.792C146.226 66.728 146.279 66.696 146.343 66.696C146.514 66.696 146.599 66.8027 146.599 67.016C146.599 67.08 146.578 67.1547 146.535 67.24C146.301 67.7093 145.874 68.0933 145.255 68.392C144.637 68.6907 143.911 68.8613 143.079 68.904C142.781 69.5867 142.311 70.1733 141.671 70.664C141.053 71.1547 140.221 71.4 139.175 71.4ZM140.711 67.784C140.754 67.5493 140.786 67.304 140.807 67.048C140.829 66.792 140.839 66.536 140.839 66.28C140.839 65.8747 140.818 65.4693 140.775 65.064C140.733 64.6373 140.679 64.2213 140.615 63.816C140.466 62.8133 140.285 61.896 140.071 61.064C139.879 60.232 139.783 59.4853 139.783 58.824C139.783 58.4827 139.815 58.1733 139.879 57.896C139.773 57.896 139.655 58.056 139.527 58.376C139.399 58.696 139.271 59.0587 139.143 59.464C139.015 59.8693 138.909 60.232 138.823 60.552C138.567 61.4693 138.29 62.4187 137.991 63.4C137.693 64.36 137.373 65.3093 137.031 66.248C137.266 66.3973 137.533 66.5467 137.831 66.696C138.151 66.8453 138.461 66.984 138.759 67.112C139.037 67.24 139.335 67.368 139.655 67.496C139.997 67.6027 140.349 67.6987 140.711 67.784ZM138.311 70.344H138.439C138.823 70.3013 139.207 70.1733 139.591 69.96C139.975 69.7253 140.253 69.3733 140.423 68.904C140.423 68.8827 140.423 68.872 140.423 68.872C140.445 68.8507 140.455 68.8293 140.455 68.808C139.666 68.744 138.919 68.648 138.215 68.52C137.533 68.3707 136.978 68.1893 136.551 67.976C136.551 68.04 136.541 68.104 136.519 68.168C136.519 68.232 136.519 68.2853 136.519 68.328C136.519 68.968 136.679 69.4693 136.999 69.832C137.341 70.1733 137.778 70.344 138.311 70.344ZM151.093 71.656C150.069 71.656 149.237 71.3467 148.597 70.728C147.978 70.088 147.52 69.3093 147.221 68.392C146.944 67.4533 146.805 66.536 146.805 65.64C146.805 64.616 146.912 63.592 147.125 62.568C147.338 61.5227 147.669 60.5733 148.117 59.72C148.586 58.8667 149.173 58.184 149.877 57.672C150.581 57.1387 151.413 56.872 152.373 56.872C153.056 56.872 153.589 57.0747 153.973 57.48C154.357 57.8853 154.549 58.4827 154.549 59.272C154.549 60.3387 154.282 61.288 153.749 62.12C153.237 62.9307 152.586 63.592 151.797 64.104C151.008 64.616 150.186 64.968 149.333 65.16V65.32C149.333 66.1947 149.418 67.016 149.589 67.784C149.781 68.5307 150.08 69.1387 150.485 69.608C150.912 70.056 151.466 70.28 152.149 70.28C152.981 70.28 153.621 69.9387 154.069 69.256C154.517 68.552 154.869 67.6667 155.125 66.6C155.146 66.5147 155.178 66.44 155.221 66.376C155.285 66.2907 155.338 66.248 155.381 66.248C155.573 66.248 155.658 66.3867 155.637 66.664C155.573 67.24 155.445 67.784 155.253 68.296C155.061 68.808 154.858 69.2453 154.645 69.608C154.24 70.2693 153.749 70.7707 153.173 71.112C152.618 71.4747 151.925 71.656 151.093 71.656ZM149.365 64.424C150.048 64.2533 150.645 63.9227 151.157 63.432C151.669 62.92 152.064 62.3227 152.341 61.64C152.64 60.9573 152.789 60.264 152.789 59.56V59.4C152.789 59.016 152.725 58.6533 152.597 58.312C152.49 57.9707 152.277 57.8 151.957 57.8C151.573 57.8 151.232 57.992 150.933 58.376C150.656 58.7387 150.41 59.208 150.197 59.784C150.005 60.36 149.845 60.9573 149.717 61.576C149.589 62.1947 149.493 62.76 149.429 63.272C149.386 63.784 149.365 64.1573 149.365 64.392V64.424Z" fill="#E72517"/>
</g>
<defs>
<filter id="filter0_i_1_4" x="0" y="0" width="155.669" height="86.056" filterUnits="userSpaceOnUse" color-interpolation-filters="sRGB">
<feFlood flood-opacity="0" result="BackgroundImageFix"/>
<feBlend mode="normal" in="SourceGraphic" in2="BackgroundImageFix" result="shape"/>
<feColorMatrix in="SourceAlpha" type="matrix" values="0 0 0 0 0 0 0 0 0 0 0 0 0 0 0 0 0 0 127 0" result="hardAlpha"/>
<feOffset dy="4"/>
<feGaussianBlur stdDeviation="2"/>
<feComposite in2="hardAlpha" operator="arithmetic" k2="-1" k3="1"/>
<feColorMatrix type="matrix" values="0 0 0 0 0 0 0 0 0 0 0 0 0 0 0 0 0 0 0.25 0"/>
<feBlend mode="normal" in2="shape" result="effect1_innerShadow_1_4"/>
</filter>
</defs>
</svg>
