<svg width="172" height="92" viewBox="0 0 172 92" fill="none" xmlns="http://www.w3.org/2000/svg">
<g filter="url(#filter0_d_1_10)">
<g filter="url(#filter1_d_1_10)">
<g filter="url(#filter2_i_1_10)">
<path d="M16.4047 24.78C16.0421 24.78 15.6901 24.7693 15.3487 24.748C15.0287 24.7267 14.7194 24.6947 14.4207 24.652C12.7141 24.3747 11.4874 23.9373 10.7407 23.34C9.99408 22.7427 9.62075 22.0813 9.62075 21.356C9.62075 20.716 9.86608 20.076 10.3567 19.436C10.8687 18.7747 11.5514 18.1773 12.4047 17.644C13.2794 17.0893 14.2821 16.652 15.4127 16.332C16.5434 15.9907 17.7487 15.82 19.0287 15.82C19.3701 15.82 19.7647 15.852 20.2127 15.916C20.6607 15.9587 20.9487 16.012 21.0767 16.076C21.2047 16.14 21.2687 16.2253 21.2687 16.332C21.2687 16.4813 21.1407 16.556 20.8847 16.556H20.6927C20.4794 16.556 20.2554 16.5453 20.0207 16.524C19.7861 16.4813 19.5514 16.46 19.3167 16.46C18.2927 16.46 17.3221 16.6093 16.4047 16.908C15.4874 17.2067 14.6767 17.5907 13.9727 18.06C13.2687 18.5293 12.7141 19.052 12.3087 19.628C11.9034 20.1827 11.7007 20.7267 11.7007 21.26C11.7007 21.8573 11.9674 22.3907 12.5007 22.86C13.0554 23.3293 13.9514 23.66 15.1887 23.852C15.4234 23.8733 15.6687 23.8947 15.9247 23.916C16.1807 23.9587 16.4261 23.98 16.6607 23.98C17.8341 23.98 18.9541 23.788 20.0207 23.404C21.0874 23.02 22.0367 22.5187 22.8687 21.9C23.7221 21.26 24.3941 20.5667 24.8847 19.82C25.3754 19.0733 25.6207 18.348 25.6207 17.644C25.6207 17.132 25.4714 16.652 25.1727 16.204C24.8954 15.756 24.4261 15.3613 23.7647 15.02C22.9967 14.636 22.1647 14.316 21.2687 14.06C20.3941 13.7827 19.5087 13.516 18.6127 13.26C17.7167 13.004 16.8634 12.716 16.0527 12.396C15.2421 12.076 14.5274 11.66 13.9087 11.148C13.4607 10.7853 13.1301 10.3693 12.9167 9.9C12.7247 9.43067 12.6287 8.94 12.6287 8.428C12.6287 7.80933 12.7674 7.20133 13.0447 6.604C13.3221 5.98533 13.6954 5.42 14.1647 4.908C14.9114 4.11867 15.7861 3.47867 16.7887 2.988C17.7914 2.476 18.8474 2.092 19.9567 1.836C21.0661 1.58 22.1434 1.452 23.1887 1.452H23.3167C25.3434 1.452 26.8154 1.772 27.7327 2.412C28.6714 3.03067 29.1407 3.74533 29.1407 4.556C29.1407 5.196 28.8634 5.836 28.3087 6.476C27.7541 7.09467 26.9754 7.61733 25.9727 8.044C24.9701 8.44933 23.7754 8.652 22.3887 8.652H22.2607C22.1327 8.652 22.0154 8.59867 21.9087 8.492C21.8234 8.364 21.7807 8.25733 21.7807 8.172C21.7807 8.06533 21.8341 8.012 21.9407 8.012C22.8794 8.012 23.7647 7.79867 24.5967 7.372C25.4501 6.94533 26.1327 6.42267 26.6447 5.804C27.1781 5.164 27.4447 4.556 27.4447 3.98C27.4447 3.48933 27.1887 3.06267 26.6767 2.7C26.1861 2.316 25.3434 2.124 24.1487 2.124H24.0527C23.0287 2.124 21.9834 2.29467 20.9167 2.636C19.8714 2.97733 18.9007 3.42533 18.0047 3.98C17.1087 4.53467 16.3834 5.15333 15.8287 5.836C15.2741 6.49733 14.9967 7.16933 14.9967 7.852C14.9967 8.25733 15.1141 8.652 15.3487 9.036C15.5834 9.42 15.9674 9.772 16.5007 10.092C17.1834 10.5187 18.0154 10.8707 18.9967 11.148C19.9994 11.4253 21.0341 11.7133 22.1007 12.012C23.1887 12.2893 24.2021 12.6307 25.1407 13.036C26.0794 13.4413 26.8367 13.9747 27.4127 14.636C28.0101 15.276 28.3087 16.108 28.3087 17.132C28.3087 17.3453 28.2981 17.5693 28.2767 17.804C28.2554 18.0387 28.2127 18.2733 28.1487 18.508C27.8714 19.6387 27.3167 20.6093 26.4847 21.42C25.6527 22.2093 24.6607 22.8493 23.5087 23.34C22.3567 23.8307 21.1514 24.1933 19.8927 24.428C18.6554 24.6627 17.4927 24.78 16.4047 24.78ZM33.3082 23.66C32.8816 23.66 32.5189 23.5107 32.2202 23.212C31.9216 22.9133 31.7722 22.5507 31.7722 22.124C31.7722 21.6973 31.9216 21.3347 32.2202 21.036C32.5189 20.7373 32.8816 20.588 33.3082 20.588C33.7349 20.588 34.0976 20.7373 34.3962 21.036C34.6949 21.3347 34.8442 21.6973 34.8442 22.124C34.8442 22.5507 34.6949 22.9133 34.3962 23.212C34.0976 23.5107 33.7349 23.66 33.3082 23.66ZM43.7472 24.78C43.3846 24.78 43.0326 24.7693 42.6912 24.748C42.3712 24.7267 42.0619 24.6947 41.7632 24.652C40.0566 24.3747 38.8299 23.9373 38.0832 23.34C37.3366 22.7427 36.9632 22.0813 36.9632 21.356C36.9632 20.716 37.2086 20.076 37.6992 19.436C38.2112 18.7747 38.8939 18.1773 39.7472 17.644C40.6219 17.0893 41.6246 16.652 42.7552 16.332C43.8859 15.9907 45.0912 15.82 46.3712 15.82C46.7126 15.82 47.1072 15.852 47.5552 15.916C48.0032 15.9587 48.2912 16.012 48.4192 16.076C48.5472 16.14 48.6112 16.2253 48.6112 16.332C48.6112 16.4813 48.4832 16.556 48.2272 16.556H48.0352C47.8219 16.556 47.5979 16.5453 47.3632 16.524C47.1286 16.4813 46.8939 16.46 46.6592 16.46C45.6352 16.46 44.6646 16.6093 43.7472 16.908C42.8299 17.2067 42.0192 17.5907 41.3152 18.06C40.6112 18.5293 40.0566 19.052 39.6512 19.628C39.2459 20.1827 39.0432 20.7267 39.0432 21.26C39.0432 21.8573 39.3099 22.3907 39.8432 22.86C40.3979 23.3293 41.2939 23.66 42.5312 23.852C42.7659 23.8733 43.0112 23.8947 43.2672 23.916C43.5232 23.9587 43.7686 23.98 44.0032 23.98C45.1766 23.98 46.2966 23.788 47.3632 23.404C48.4299 23.02 49.3792 22.5187 50.2112 21.9C51.0646 21.26 51.7366 20.5667 52.2272 19.82C52.7179 19.0733 52.9632 18.348 52.9632 17.644C52.9632 17.132 52.8139 16.652 52.5152 16.204C52.2379 15.756 51.7686 15.3613 51.1072 15.02C50.3392 14.636 49.5072 14.316 48.6112 14.06C47.7366 13.7827 46.8512 13.516 45.9552 13.26C45.0592 13.004 44.2059 12.716 43.3952 12.396C42.5846 12.076 41.8699 11.66 41.2512 11.148C40.8032 10.7853 40.4726 10.3693 40.2592 9.9C40.0672 9.43067 39.9712 8.94 39.9712 8.428C39.9712 7.80933 40.1099 7.20133 40.3872 6.604C40.6646 5.98533 41.0379 5.42 41.5072 4.908C42.2539 4.11867 43.1286 3.47867 44.1312 2.988C45.1339 2.476 46.1899 2.092 47.2992 1.836C48.4086 1.58 49.4859 1.452 50.5312 1.452H50.6592C52.6859 1.452 54.1579 1.772 55.0752 2.412C56.0139 3.03067 56.4832 3.74533 56.4832 4.556C56.4832 5.196 56.2059 5.836 55.6512 6.476C55.0966 7.09467 54.3179 7.61733 53.3152 8.044C52.3126 8.44933 51.1179 8.652 49.7312 8.652H49.6032C49.4752 8.652 49.3579 8.59867 49.2512 8.492C49.1659 8.364 49.1232 8.25733 49.1232 8.172C49.1232 8.06533 49.1766 8.012 49.2832 8.012C50.2219 8.012 51.1072 7.79867 51.9392 7.372C52.7926 6.94533 53.4752 6.42267 53.9872 5.804C54.5206 5.164 54.7872 4.556 54.7872 3.98C54.7872 3.48933 54.5312 3.06267 54.0192 2.7C53.5286 2.316 52.6859 2.124 51.4912 2.124H51.3952C50.3712 2.124 49.3259 2.29467 48.2592 2.636C47.2139 2.97733 46.2432 3.42533 45.3472 3.98C44.4512 4.53467 43.7259 5.15333 43.1712 5.836C42.6166 6.49733 42.3392 7.16933 42.3392 7.852C42.3392 8.25733 42.4566 8.652 42.6912 9.036C42.9259 9.42 43.3099 9.772 43.8432 10.092C44.5259 10.5187 45.3579 10.8707 46.3392 11.148C47.3419 11.4253 48.3766 11.7133 49.4432 12.012C50.5312 12.2893 51.5446 12.6307 52.4832 13.036C53.4219 13.4413 54.1792 13.9747 54.7552 14.636C55.3526 15.276 55.6512 16.108 55.6512 17.132C55.6512 17.3453 55.6406 17.5693 55.6192 17.804C55.5979 18.0387 55.5552 18.2733 55.4912 18.508C55.2139 19.6387 54.6592 20.6093 53.8272 21.42C52.9952 22.2093 52.0032 22.8493 50.8512 23.34C49.6992 23.8307 48.4939 24.1933 47.2352 24.428C45.9979 24.6627 44.8352 24.78 43.7472 24.78ZM60.6507 23.66C60.2241 23.66 59.8614 23.5107 59.5627 23.212C59.2641 22.9133 59.1147 22.5507 59.1147 22.124C59.1147 21.6973 59.2641 21.3347 59.5627 21.036C59.8614 20.7373 60.2241 20.588 60.6507 20.588C61.0774 20.588 61.4401 20.7373 61.7387 21.036C62.0374 21.3347 62.1867 21.6973 62.1867 22.124C62.1867 22.5507 62.0374 22.9133 61.7387 23.212C61.4401 23.5107 61.0774 23.66 60.6507 23.66ZM68.0172 74.292C66.6946 74.292 65.4572 74.1213 64.3052 73.78C63.1532 73.4387 62.2146 72.852 61.4892 72.02C61.1906 71.6573 60.9452 71.22 60.7532 70.708C60.5826 70.1747 60.4972 69.588 60.4972 68.948C60.4972 68.372 60.5719 67.8173 60.7212 67.284C60.9986 66.324 61.5106 65.46 62.2572 64.692C63.0039 63.9027 63.8679 63.22 64.8492 62.644C65.8519 62.068 66.8546 61.5987 67.8572 61.236C68.8812 60.8733 69.7986 60.6173 70.6092 60.468C70.0119 60.3613 69.3932 60.244 68.7532 60.116C68.1346 59.9667 67.5692 59.7533 67.0572 59.476C66.5452 59.1987 66.1399 58.804 65.8412 58.292C63.9639 58.228 62.4386 57.972 61.2652 57.524C60.0919 57.076 59.2386 56.532 58.7052 55.892C58.1719 55.2307 57.9052 54.58 57.9052 53.94C57.9052 53.2147 58.2039 52.596 58.8012 52.084C59.3986 51.5507 60.2199 51.284 61.2652 51.284C61.8839 51.284 62.5239 51.4333 63.1852 51.732C63.8679 52.0093 64.4012 52.3293 64.7852 52.692C65.0412 52.948 65.1692 53.14 65.1692 53.268C65.1692 53.3747 65.0946 53.428 64.9452 53.428C64.8172 53.428 64.6999 53.396 64.5932 53.332C64.0599 53.012 63.5159 52.788 62.9612 52.66C62.4279 52.5107 61.8946 52.436 61.3612 52.436C60.6999 52.436 60.1666 52.6173 59.7612 52.98C59.3772 53.3213 59.1852 53.7373 59.1852 54.228C59.1852 54.676 59.3986 55.156 59.8252 55.668C60.2519 56.1587 60.9346 56.5853 61.8732 56.948C62.8119 57.3107 64.0492 57.5453 65.5852 57.652C65.4786 57.268 65.4252 56.884 65.4252 56.5C65.4252 55.3693 65.6919 54.3987 66.2252 53.588C66.7586 52.756 67.4519 52.0627 68.3052 51.508C69.1799 50.9533 70.1186 50.548 71.1212 50.292C72.1452 50.0147 73.1479 49.876 74.1292 49.876C75.7079 49.876 76.9452 50.196 77.8412 50.836C78.7586 51.476 79.2172 52.2333 79.2172 53.108C79.2172 53.876 78.8119 54.6547 78.0012 55.444C77.1906 56.212 75.8999 56.8627 74.1292 57.396C72.3586 57.9293 70.0332 58.228 67.1532 58.292C67.5372 58.74 68.1132 59.1133 68.8812 59.412C69.6492 59.6893 70.6306 59.828 71.8252 59.828C72.3159 59.828 72.8492 59.8067 73.4252 59.764C74.0012 59.7 74.6199 59.604 75.2812 59.476H75.4092C75.9852 59.476 76.2732 59.6787 76.2732 60.084C76.2732 60.4253 76.1132 60.788 75.7932 61.172C75.4946 61.556 75.2279 61.748 74.9932 61.748H74.5132C73.4466 61.748 72.2946 61.844 71.0572 62.036C69.8412 62.228 68.6466 62.548 67.4732 62.996C66.2999 63.444 65.2439 64.0413 64.3052 64.788C63.3666 65.5347 62.6626 66.4733 62.1932 67.604C61.9159 68.2867 61.7772 68.8947 61.7772 69.428C61.7772 70.1533 62.0119 70.7187 62.4812 71.124C62.9719 71.5293 63.6012 71.8173 64.3692 71.988C65.1372 72.1587 65.9479 72.244 66.8012 72.244C67.6759 72.244 68.5292 72.1907 69.3612 72.084C70.2146 71.956 70.9292 71.8173 71.5052 71.668C73.0412 71.284 74.4386 70.74 75.6972 70.036C76.9559 69.3107 77.8626 68.6173 78.4172 67.956C78.9079 67.38 79.1532 66.8467 79.1532 66.356C79.1532 65.844 78.9079 65.4493 78.4172 65.172C77.9266 64.8733 77.2972 64.724 76.5292 64.724C75.5266 64.724 74.3852 65.012 73.1052 65.588C71.8252 66.1427 70.6306 67.06 69.5212 68.34C69.3292 68.5747 69.1692 68.692 69.0412 68.692C68.9346 68.692 68.8812 68.628 68.8812 68.5C68.8812 68.372 68.9346 68.212 69.0412 68.02C69.1479 67.8067 69.3186 67.5613 69.5532 67.284C70.2146 66.5373 70.9932 65.8973 71.8892 65.364C72.8066 64.8307 73.7452 64.4147 74.7052 64.116C75.6652 63.8173 76.5399 63.668 77.3292 63.668H77.3932C78.4599 63.668 79.2706 63.9773 79.8252 64.596C80.4012 65.1933 80.6892 65.9187 80.6892 66.772C80.6892 67.3053 80.5826 67.8493 80.3692 68.404C80.1559 68.9587 79.8252 69.492 79.3772 70.004C78.7159 70.772 77.7986 71.4867 76.6252 72.148C75.4519 72.788 74.1186 73.3 72.6252 73.684C71.1532 74.0893 69.6172 74.292 68.0172 74.292ZM66.8012 57.684H66.8972C69.3506 57.684 71.3026 57.492 72.7532 57.108C74.2252 56.724 75.2812 56.244 75.9212 55.668C76.5826 55.092 76.9132 54.516 76.9132 53.94C76.9132 53.3213 76.5932 52.788 75.9532 52.34C75.3132 51.8707 74.4706 51.636 73.4252 51.636C72.6999 51.636 71.9426 51.7533 71.1532 51.988C70.3639 52.2013 69.6172 52.532 68.9132 52.98C68.2306 53.4067 67.6652 53.9293 67.2172 54.548C66.7906 55.1667 66.5772 55.8707 66.5772 56.66C66.5772 57.044 66.6519 57.3853 66.8012 57.684ZM83.0755 72.756C82.7768 72.756 82.5208 72.6493 82.3075 72.436C82.1155 72.2013 82.0195 71.8173 82.0195 71.284C82.0195 71.1987 82.0195 71.1133 82.0195 71.028C82.0195 70.9213 82.0302 70.8147 82.0515 70.708C82.0942 70.324 82.1368 69.7907 82.1795 69.108C82.2435 68.4253 82.2862 67.6573 82.3075 66.804C82.3502 65.9507 82.3715 65.0973 82.3715 64.244C82.3715 63.348 82.3395 62.5053 82.2755 61.716C82.2328 60.9053 82.1475 60.2653 82.0195 59.796C82.1902 59.7533 82.4142 59.636 82.6915 59.444C82.9688 59.252 83.2568 59.124 83.5555 59.06C83.6195 59.0387 83.7048 59.028 83.8115 59.028C84.1742 59.028 84.3982 59.22 84.4835 59.604C84.5902 59.988 84.6435 60.4573 84.6435 61.012C84.6435 61.396 84.6328 61.8547 84.6115 62.388C84.6115 62.9 84.5902 63.348 84.5475 63.732C84.7822 63.0493 85.0382 62.4627 85.3155 61.972C85.5928 61.46 85.8915 60.9693 86.2115 60.5C86.5315 60.0093 86.8728 59.5293 87.2355 59.06C87.5982 58.5693 88.0888 58.324 88.7075 58.324C89.3475 58.324 89.7635 58.5373 89.9555 58.964C90.1475 59.3907 90.2435 59.86 90.2435 60.372C90.2435 60.6493 90.2328 60.916 90.2115 61.172C90.1902 61.4067 90.1688 61.6307 90.1475 61.844C90.1475 61.9933 90.1155 62.388 90.0515 63.028C89.9875 63.6467 89.9235 64.3827 89.8595 65.236C89.7955 66.068 89.7635 66.9107 89.7635 67.764C89.7635 67.9987 89.7742 68.3293 89.7955 68.756C89.8168 69.1613 89.8595 69.5773 89.9235 70.004C89.9875 70.4093 90.0942 70.7613 90.2435 71.06C90.4142 71.3373 90.6382 71.476 90.9155 71.476C91.0862 71.476 91.2782 71.412 91.4915 71.284C91.7262 71.1133 91.9288 70.8893 92.0995 70.612C92.2915 70.3347 92.4408 70.0573 92.5475 69.78C92.6328 69.588 92.7182 69.3747 92.8035 69.14C92.8888 68.9053 92.9635 68.66 93.0275 68.404C93.1128 68.148 93.2302 68.02 93.3795 68.02C93.4862 68.02 93.5395 68.1267 93.5395 68.34V68.468C93.5395 68.6173 93.5075 68.8093 93.4435 69.044C93.4008 69.2787 93.3368 69.5133 93.2515 69.748C92.9955 70.5373 92.6115 71.2307 92.0995 71.828C91.6088 72.404 90.9155 72.692 90.0195 72.692C89.4222 72.692 88.9528 72.468 88.6115 72.02C88.2915 71.5507 88.0568 70.9533 87.9075 70.228C87.8222 69.8227 87.7582 69.4173 87.7155 69.012C87.6942 68.6067 87.6835 68.2013 87.6835 67.796C87.6835 66.7933 87.7475 65.8013 87.8755 64.82C88.0248 63.8173 88.0995 62.8573 88.0995 61.94C88.0995 61.6413 88.0568 61.364 87.9715 61.108C87.9075 60.8307 87.7475 60.692 87.4915 60.692C87.2355 60.692 86.9262 60.9373 86.5635 61.428C86.2008 61.8973 85.8275 62.5907 85.4435 63.508C85.0595 64.404 84.7395 65.428 84.4835 66.58C84.2275 67.7107 84.0995 68.8733 84.0995 70.068C84.0995 70.7933 84.1635 71.5293 84.2915 72.276C84.1422 72.3827 83.9502 72.4893 83.7155 72.596C83.4808 72.7027 83.2675 72.756 83.0755 72.756ZM96.7947 72.66C96.1547 72.66 95.6321 72.4573 95.2267 72.052C94.8427 71.6467 94.5441 71.1347 94.3307 70.516C94.1174 69.8973 93.9681 69.2573 93.8827 68.596C93.8187 67.9347 93.7867 67.348 93.7867 66.836V66.356C93.8081 66.1 93.8294 65.62 93.8507 64.916C93.8721 64.212 93.9041 63.3907 93.9467 62.452C93.9894 61.492 94.0534 60.5213 94.1387 59.54H93.1467C92.9761 59.54 92.8907 59.4333 92.8907 59.22C92.8907 59.1133 92.9334 59.0067 93.0187 58.9C93.0827 58.772 93.1681 58.708 93.2747 58.708H94.2027C94.2881 57.7053 94.3841 56.7987 94.4907 55.988C94.5974 55.1773 94.7254 54.6013 94.8747 54.26C94.9814 54.0253 95.1734 53.8227 95.4507 53.652C95.7281 53.46 96.1014 53.364 96.5707 53.364C96.6987 53.364 96.8374 53.3747 96.9867 53.396C97.1574 53.4173 97.3174 53.4493 97.4667 53.492C97.3601 53.8547 97.2321 54.516 97.0827 55.476C96.9547 56.4147 96.8374 57.492 96.7307 58.708H99.2907C99.4827 58.708 99.5787 58.8253 99.5787 59.06C99.5787 59.1667 99.5467 59.2733 99.4827 59.38C99.4187 59.4867 99.3227 59.54 99.1947 59.54H96.6347C96.5281 60.7133 96.4427 61.9293 96.3787 63.188C96.3147 64.4253 96.2721 65.5667 96.2507 66.612V67.348C96.2507 67.9027 96.2721 68.5107 96.3147 69.172C96.3574 69.8333 96.4641 70.3987 96.6347 70.868C96.8054 71.3373 97.0614 71.572 97.4027 71.572H97.4347C97.6054 71.572 97.7867 71.4867 97.9787 71.316C98.1921 71.1453 98.4161 70.8253 98.6507 70.356C98.8214 70.0573 98.9707 69.7053 99.0987 69.3C99.2481 68.8733 99.3974 68.4253 99.5467 67.956C99.6321 67.764 99.7174 67.668 99.8027 67.668C99.9094 67.668 99.9627 67.796 99.9627 68.052V68.18C99.9201 68.7347 99.7707 69.364 99.5147 70.068C99.2587 70.772 98.8961 71.38 98.4267 71.892C97.9787 72.404 97.4347 72.66 96.7947 72.66ZM104.081 72.724C103.099 72.724 102.31 72.4893 101.713 72.02C101.137 71.5507 100.71 70.9427 100.433 70.196C100.177 69.428 100.017 68.6173 99.9527 67.764C99.9314 67.5933 99.9207 67.412 99.9207 67.22C99.9207 67.028 99.9207 66.8467 99.9207 66.676C99.9207 65.6733 100.027 64.6707 100.241 63.668C100.454 62.6653 100.785 61.7587 101.233 60.948C101.702 60.116 102.289 59.4547 102.993 58.964C103.718 58.452 104.582 58.196 105.585 58.196C106.203 58.196 106.651 58.42 106.929 58.868C107.227 59.316 107.377 59.7853 107.377 60.276C107.377 61.4067 107.131 62.3987 106.641 63.252C106.171 64.1053 105.553 64.8093 104.785 65.364C104.038 65.9187 103.249 66.3133 102.417 66.548C102.438 67.188 102.513 67.892 102.641 68.66C102.79 69.4067 103.057 70.0573 103.441 70.612C103.825 71.1453 104.379 71.412 105.105 71.412C105.787 71.412 106.363 71.2093 106.833 70.804C107.302 70.3773 107.686 69.8333 107.985 69.172C108.283 68.4893 108.507 67.764 108.657 66.996C108.827 66.228 108.955 65.492 109.041 64.788C109.126 64.0627 109.19 63.4653 109.233 62.996C109.275 62.548 109.307 62.1107 109.329 61.684C109.35 61.236 109.361 60.8093 109.361 60.404C109.361 60.148 109.361 59.892 109.361 59.636C109.361 59.38 109.339 59.1453 109.297 58.932C108.849 58.5907 108.507 58.1747 108.273 57.684C108.059 57.172 107.953 56.692 107.953 56.244C107.953 55.8387 108.038 55.4973 108.209 55.22C108.401 54.9427 108.678 54.804 109.041 54.804C109.275 54.804 109.51 54.9747 109.745 55.316C109.979 55.6573 110.139 56.18 110.225 56.884C110.267 57.0973 110.289 57.332 110.289 57.588C110.289 57.844 110.289 58.1213 110.289 58.42V59.124C110.523 59.2733 110.79 59.3907 111.089 59.476C111.409 59.5613 111.697 59.604 111.953 59.604C112.166 59.604 112.369 59.572 112.561 59.508C112.753 59.444 112.913 59.3373 113.041 59.188C113.211 58.9533 113.382 58.7293 113.553 58.516C113.745 58.2813 114.118 58.1533 114.673 58.132H114.897C115.046 58.132 115.206 58.1427 115.377 58.164C115.547 58.1853 115.739 58.2173 115.953 58.26C115.697 58.7933 115.483 59.476 115.313 60.308C115.142 61.14 114.993 62.036 114.865 62.996C114.758 63.9347 114.673 64.8413 114.609 65.716C114.566 66.5693 114.545 67.3053 114.545 67.924V68.212C114.545 69.108 114.651 69.8973 114.865 70.58C115.078 71.2413 115.451 71.572 115.985 71.572C116.326 71.572 116.625 71.4333 116.881 71.156C117.137 70.8787 117.361 70.5373 117.553 70.132C117.745 69.7053 117.905 69.3 118.033 68.916C118.161 68.5107 118.257 68.1907 118.321 67.956C118.363 67.764 118.449 67.668 118.577 67.668C118.683 67.668 118.737 67.7853 118.737 68.02V68.18C118.587 69.652 118.171 70.772 117.489 71.54C116.827 72.2867 116.027 72.66 115.089 72.66C114.619 72.66 114.225 72.564 113.905 72.372C113.606 72.18 113.339 71.9133 113.105 71.572C112.763 71.06 112.529 70.356 112.401 69.46C112.273 68.564 112.209 67.604 112.209 66.58C112.209 65.428 112.273 64.2973 112.401 63.188C112.529 62.0787 112.667 61.1613 112.817 60.436C112.731 60.4573 112.646 60.4787 112.561 60.5C112.475 60.5 112.39 60.5 112.305 60.5C111.942 60.5 111.579 60.436 111.217 60.308C110.875 60.18 110.555 60.0093 110.257 59.796C110.235 60.3293 110.193 60.884 110.129 61.46C110.065 62.0147 110.001 62.5693 109.937 63.124C109.851 63.828 109.734 64.6387 109.585 65.556C109.457 66.452 109.254 67.348 108.977 68.244C108.721 69.14 108.358 69.9507 107.889 70.676C107.441 71.4013 106.854 71.9453 106.129 72.308C105.553 72.5853 104.87 72.724 104.081 72.724ZM102.417 65.812C103.078 65.5987 103.643 65.236 104.113 64.724C104.603 64.212 104.977 63.6147 105.233 62.932C105.51 62.228 105.649 61.524 105.649 60.82C105.649 60.4147 105.585 60.0307 105.457 59.668C105.329 59.284 105.083 59.092 104.721 59.092C104.337 59.092 104.006 59.284 103.729 59.668C103.473 60.0307 103.259 60.5 103.089 61.076C102.918 61.6307 102.79 62.2173 102.705 62.836C102.619 63.4547 102.555 64.02 102.513 64.532C102.47 65.0227 102.449 65.3853 102.449 65.62C102.427 65.6627 102.417 65.7267 102.417 65.812ZM118.142 83.508C117.395 83.508 116.872 83.1453 116.574 82.42C116.254 81.6947 116.094 80.7987 116.094 79.732C116.094 79.284 116.115 78.804 116.158 78.292C116.2 77.8013 116.264 77.3107 116.35 76.82C116.456 76.1373 116.606 75.4653 116.798 74.804C116.99 74.1427 117.192 73.5133 117.406 72.916C117.704 72.0627 118.035 71.2627 118.398 70.516C118.782 69.748 118.974 68.9053 118.974 67.988V67.86C118.974 66.6013 118.92 65.428 118.814 64.34C118.728 63.252 118.611 62.3133 118.462 61.524C118.334 60.7347 118.206 60.1587 118.078 59.796C118.504 59.668 118.867 59.5187 119.166 59.348C119.464 59.1773 119.742 59.0813 119.998 59.06H120.158C120.563 59.06 120.819 59.2733 120.926 59.7C121.032 60.1053 121.096 60.596 121.118 61.172C121.139 61.556 121.15 62.0573 121.15 62.676C121.15 63.2947 121.16 63.9773 121.182 64.724C121.48 63.6573 121.832 62.6227 122.238 61.62C122.643 60.6173 123.091 59.796 123.582 59.156C124.072 58.4947 124.574 58.164 125.086 58.164C125.726 58.164 126.216 58.388 126.558 58.836C126.92 59.284 127.176 59.8493 127.326 60.532C127.496 61.1933 127.592 61.8653 127.614 62.548C127.656 63.2093 127.678 63.764 127.678 64.212C127.678 65.3213 127.528 66.484 127.23 67.7C126.952 68.8947 126.504 69.9187 125.886 70.772H126.046C126.984 70.772 127.838 70.3347 128.606 69.46C129.139 68.8627 129.534 68.1373 129.79 67.284C130.046 66.4307 130.227 65.5453 130.334 64.628C130.462 63.7107 130.558 62.8787 130.622 62.132C130.664 61.8333 130.686 61.556 130.686 61.3C130.686 61.0227 130.686 60.7773 130.686 60.564V60.052C130.152 59.8173 129.758 59.476 129.502 59.028C129.267 58.58 129.15 58.1533 129.15 57.748C129.15 57.4493 129.203 57.1933 129.31 56.98C129.438 56.7453 129.619 56.6173 129.854 56.596H129.918C130.216 56.596 130.483 56.8093 130.718 57.236C130.952 57.6413 131.144 58.1 131.294 58.612C131.443 59.1027 131.518 59.4973 131.518 59.796C131.774 59.988 132.051 60.1267 132.35 60.212C132.67 60.2973 132.936 60.34 133.15 60.34C133.427 60.34 133.608 60.2973 133.694 60.212C133.864 60.0413 134.067 59.796 134.302 59.476C134.558 59.156 134.952 58.996 135.486 58.996C135.848 58.996 136.286 59.1027 136.798 59.316C136.542 59.8493 136.307 60.4573 136.094 61.14C135.88 61.8013 135.699 62.5053 135.55 63.252C135.528 63.4227 135.475 63.764 135.39 64.276C135.304 64.788 135.23 65.3747 135.166 66.036C135.102 66.6973 135.07 67.3587 135.07 68.02C135.07 68.9587 135.166 69.7907 135.358 70.516C135.571 71.22 135.955 71.572 136.51 71.572C136.851 71.572 137.15 71.4333 137.406 71.156C137.662 70.8787 137.886 70.5373 138.078 70.132C138.27 69.7053 138.43 69.3 138.558 68.916C138.686 68.5107 138.782 68.1907 138.846 67.956C138.888 67.764 138.974 67.668 139.102 67.668C139.208 67.668 139.262 67.7853 139.262 68.02V68.18C139.112 69.652 138.696 70.772 138.014 71.54C137.352 72.2867 136.552 72.66 135.614 72.66C134.888 72.66 134.323 72.436 133.918 71.988C133.534 71.5187 133.256 70.9213 133.086 70.196C132.936 69.4493 132.862 68.6493 132.862 67.796C132.862 66.8787 132.915 65.9827 133.022 65.108C133.15 64.212 133.278 63.4227 133.406 62.74C133.555 62.0573 133.662 61.588 133.726 61.332C133.128 61.2893 132.659 61.1933 132.318 61.044C131.976 60.8947 131.688 60.7133 131.454 60.5C131.432 60.82 131.4 61.1507 131.358 61.492C131.315 61.8333 131.272 62.1853 131.23 62.548C131.123 63.4013 130.984 64.34 130.814 65.364C130.664 66.3667 130.408 67.3267 130.046 68.244C129.683 69.1613 129.139 69.9187 128.414 70.516C127.688 71.1133 126.92 71.412 126.11 71.412C125.875 71.412 125.64 71.38 125.406 71.316C125.064 71.6787 124.67 71.9667 124.222 72.18C123.774 72.3933 123.272 72.5 122.718 72.5C122.099 72.5 121.63 72.372 121.31 72.116V73.524C121.31 74.1853 121.31 74.7827 121.31 75.316C121.31 75.8707 121.299 76.3187 121.278 76.66C121.214 78.004 121.096 79.1027 120.926 79.956C120.712 81.0013 120.392 81.8547 119.966 82.516C119.539 83.1773 118.963 83.508 118.238 83.508H118.142ZM122.238 71.636C122.579 71.636 122.888 71.5293 123.166 71.316C123.656 70.932 124.051 70.3133 124.35 69.46C124.67 68.5853 124.894 67.7213 125.022 66.868C125.086 66.5053 125.128 66.068 125.15 65.556C125.192 65.044 125.214 64.5213 125.214 63.988C125.214 63.0707 125.139 62.2493 124.99 61.524C124.84 60.7773 124.552 60.404 124.126 60.404C123.87 60.404 123.603 60.628 123.326 61.076C123.07 61.524 122.814 62.1107 122.558 62.836C122.302 63.5613 122.056 64.34 121.822 65.172C121.608 65.9827 121.416 66.7613 121.246 67.508C121.267 68.1267 121.278 68.7453 121.278 69.364C121.278 69.9827 121.278 70.6013 121.278 71.22C121.555 71.4973 121.875 71.636 122.238 71.636ZM118.014 82.484C118.142 82.484 118.27 82.388 118.398 82.196C118.547 82.0253 118.675 81.7373 118.782 81.332C118.931 80.7773 119.027 80.0627 119.07 79.188C119.134 78.3133 119.166 77.396 119.166 76.436C119.166 75.3907 119.144 74.3667 119.102 73.364C119.059 72.3827 119.016 71.5613 118.974 70.9C118.782 71.348 118.568 71.8813 118.334 72.5C118.099 73.1187 117.896 73.7693 117.726 74.452C117.512 75.22 117.342 75.9987 117.214 76.788C117.064 77.5987 116.99 78.4093 116.99 79.22C116.99 79.9027 117.054 80.5853 117.182 81.268C117.246 81.5667 117.363 81.844 117.534 82.1C117.683 82.356 117.843 82.484 118.014 82.484ZM142.497 56.308C142.091 56.308 141.729 56.1587 141.409 55.86C141.11 55.5613 140.961 55.1987 140.961 54.772C140.961 54.3453 141.11 53.9827 141.409 53.684C141.729 53.3853 142.091 53.236 142.497 53.236C142.923 53.236 143.286 53.3853 143.585 53.684C143.883 53.9827 144.033 54.3453 144.033 54.772C144.033 55.1987 143.883 55.5613 143.585 55.86C143.286 56.1587 142.923 56.308 142.497 56.308ZM142.273 72.66C141.505 72.66 140.897 72.34 140.449 71.7C140.022 71.0387 139.713 70.2067 139.521 69.204C139.35 68.18 139.265 67.1133 139.265 66.004C139.265 65.0867 139.307 64.2013 139.393 63.348C139.499 62.4733 139.617 61.716 139.745 61.076C139.894 60.4147 140.033 59.9453 140.161 59.668C140.289 59.412 140.491 59.1773 140.769 58.964C141.067 58.7293 141.462 58.612 141.953 58.612C142.23 58.612 142.507 58.644 142.785 58.708C142.571 59.4547 142.315 60.4893 142.017 61.812C141.718 63.1347 141.569 64.596 141.569 66.196C141.569 66.7507 141.579 67.348 141.601 67.988C141.622 68.6067 141.675 69.1933 141.761 69.748C141.846 70.2813 141.974 70.7187 142.145 71.06C142.337 71.4013 142.582 71.572 142.881 71.572H142.913C143.083 71.572 143.265 71.4867 143.457 71.316C143.67 71.1453 143.894 70.8253 144.129 70.356C144.449 69.7373 144.747 68.9373 145.025 67.956C145.067 67.764 145.153 67.668 145.281 67.668C145.387 67.668 145.441 67.796 145.441 68.052V68.18C145.398 68.7347 145.249 69.364 144.993 70.068C144.737 70.772 144.374 71.38 143.905 71.892C143.457 72.404 142.913 72.66 142.273 72.66ZM148.796 72.852C147.836 72.852 147.025 72.628 146.364 72.18C145.724 71.7107 145.404 70.8893 145.404 69.716C145.404 69.6733 145.404 69.5773 145.404 69.428C145.425 69.2573 145.447 69.0867 145.468 68.916C145.34 68.6813 145.276 68.3613 145.276 67.956C145.276 67.7 145.319 67.476 145.404 67.284C145.489 67.092 145.617 66.996 145.788 66.996H145.82C145.884 66.996 145.969 67.0707 146.076 67.22C146.353 66.4307 146.609 65.62 146.844 64.788C147.079 63.9347 147.292 63.1773 147.484 62.516C147.697 61.748 147.964 60.9267 148.284 60.052C148.625 59.156 149.159 58.4733 149.884 58.004C150.439 57.6413 151.036 57.46 151.676 57.46C151.719 57.46 151.772 57.4707 151.836 57.492C151.9 57.492 151.953 57.492 151.996 57.492C152.167 57.5133 152.252 57.588 152.252 57.716C152.252 57.8653 152.177 57.94 152.028 57.94C151.793 57.9613 151.623 58.1533 151.516 58.516C151.409 58.8573 151.356 59.252 151.356 59.7C151.356 59.8067 151.356 59.924 151.356 60.052C151.356 60.18 151.367 60.2973 151.388 60.404C151.473 61.108 151.665 61.8867 151.964 62.74C152.263 63.572 152.54 64.4147 152.796 65.268C153.073 66.1 153.212 66.8787 153.212 67.604V67.764C153.212 68.0413 153.191 68.34 153.148 68.66C153.127 68.98 153.063 69.2893 152.956 69.588C153.255 69.5667 153.543 69.5347 153.82 69.492C154.119 69.428 154.385 69.3533 154.62 69.268C154.919 69.14 155.153 68.9907 155.324 68.82C155.516 68.6493 155.676 68.4573 155.804 68.244C155.847 68.18 155.9 68.148 155.964 68.148C156.135 68.148 156.22 68.2547 156.22 68.468C156.22 68.532 156.199 68.6067 156.156 68.692C155.921 69.1613 155.495 69.5453 154.876 69.844C154.257 70.1427 153.532 70.3133 152.7 70.356C152.401 71.0387 151.932 71.6253 151.292 72.116C150.673 72.6067 149.841 72.852 148.796 72.852ZM150.332 69.236C150.375 69.0013 150.407 68.756 150.428 68.5C150.449 68.244 150.46 67.988 150.46 67.732C150.46 67.3267 150.439 66.9213 150.396 66.516C150.353 66.0893 150.3 65.6733 150.236 65.268C150.087 64.2653 149.905 63.348 149.692 62.516C149.5 61.684 149.404 60.9373 149.404 60.276C149.404 59.9347 149.436 59.6253 149.5 59.348C149.393 59.348 149.276 59.508 149.148 59.828C149.02 60.148 148.892 60.5107 148.764 60.916C148.636 61.3213 148.529 61.684 148.444 62.004C148.188 62.9213 147.911 63.8707 147.612 64.852C147.313 65.812 146.993 66.7613 146.652 67.7C146.887 67.8493 147.153 67.9987 147.452 68.148C147.772 68.2973 148.081 68.436 148.38 68.564C148.657 68.692 148.956 68.82 149.276 68.948C149.617 69.0547 149.969 69.1507 150.332 69.236ZM147.932 71.796H148.06C148.444 71.7533 148.828 71.6253 149.212 71.412C149.596 71.1773 149.873 70.8253 150.044 70.356C150.044 70.3347 150.044 70.324 150.044 70.324C150.065 70.3027 150.076 70.2813 150.076 70.26C149.287 70.196 148.54 70.1 147.836 69.972C147.153 69.8227 146.599 69.6413 146.172 69.428C146.172 69.492 146.161 69.556 146.14 69.62C146.14 69.684 146.14 69.7373 146.14 69.78C146.14 70.42 146.3 70.9213 146.62 71.284C146.961 71.6253 147.399 71.796 147.932 71.796ZM160.714 73.108C159.69 73.108 158.858 72.7987 158.218 72.18C157.599 71.54 157.14 70.7613 156.842 69.844C156.564 68.9053 156.426 67.988 156.426 67.092C156.426 66.068 156.532 65.044 156.746 64.02C156.959 62.9747 157.29 62.0253 157.738 61.172C158.207 60.3187 158.794 59.636 159.498 59.124C160.202 58.5907 161.034 58.324 161.994 58.324C162.676 58.324 163.21 58.5267 163.594 58.932C163.978 59.3373 164.17 59.9347 164.17 60.724C164.17 61.7907 163.903 62.74 163.37 63.572C162.858 64.3827 162.207 65.044 161.418 65.556C160.628 66.068 159.807 66.42 158.954 66.612V66.772C158.954 67.6467 159.039 68.468 159.21 69.236C159.402 69.9827 159.7 70.5907 160.106 71.06C160.532 71.508 161.087 71.732 161.77 71.732C162.602 71.732 163.242 71.3907 163.69 70.708C164.138 70.004 164.49 69.1187 164.746 68.052C164.767 67.9667 164.799 67.892 164.842 67.828C164.906 67.7427 164.959 67.7 165.002 67.7C165.194 67.7 165.279 67.8387 165.258 68.116C165.194 68.692 165.066 69.236 164.874 69.748C164.682 70.26 164.479 70.6973 164.266 71.06C163.86 71.7213 163.37 72.2227 162.794 72.564C162.239 72.9267 161.546 73.108 160.714 73.108ZM158.986 65.876C159.668 65.7053 160.266 65.3747 160.778 64.884C161.29 64.372 161.684 63.7747 161.962 63.092C162.26 62.4093 162.41 61.716 162.41 61.012V60.852C162.41 60.468 162.346 60.1053 162.218 59.764C162.111 59.4227 161.898 59.252 161.578 59.252C161.194 59.252 160.852 59.444 160.554 59.828C160.276 60.1907 160.031 60.66 159.818 61.236C159.626 61.812 159.466 62.4093 159.338 63.028C159.21 63.6467 159.114 64.212 159.05 64.724C159.007 65.236 158.986 65.6093 158.986 65.844V65.876Z" fill="white"/>
</g>
</g>
</g>
<defs>
<filter id="filter0_d_1_10" x="0" y="-4" width="172" height="95.508" filterUnits="userSpaceOnUse" color-interpolation-filters="sRGB">
<feFlood flood-opacity="0" result="BackgroundImageFix"/>
<feColorMatrix in="SourceAlpha" type="matrix" values="0 0 0 0 0 0 0 0 0 0 0 0 0 0 0 0 0 0 127 0" result="hardAlpha"/>
<feOffset dy="4"/>
<feGaussianBlur stdDeviation="2"/>
<feComposite in2="hardAlpha" operator="out"/>
<feColorMatrix type="matrix" values="0 0 0 0 0 0 0 0 0 0 0 0 0 0 0 0 0 0 0.25 0"/>
<feBlend mode="normal" in2="BackgroundImageFix" result="effect1_dropShadow_1_10"/>
<feBlend mode="normal" in="SourceGraphic" in2="effect1_dropShadow_1_10" result="shape"/>
</filter>
<filter id="filter1_d_1_10" x="0" y="0" width="172" height="91.508" filterUnits="userSpaceOnUse" color-interpolation-filters="sRGB">
<feFlood flood-opacity="0" result="BackgroundImageFix"/>
<feColorMatrix in="SourceAlpha" type="matrix" values="0 0 0 0 0 0 0 0 0 0 0 0 0 0 0 0 0 0 127 0" result="hardAlpha"/>
<feOffset dy="4"/>
<feGaussianBlur stdDeviation="2"/>
<feComposite in2="hardAlpha" operator="out"/>
<feColorMatrix type="matrix" values="0 0 0 0 0 0 0 0 0 0 0 0 0 0 0 0 0 0 0.25 0"/>
<feBlend mode="normal" in2="BackgroundImageFix" result="effect1_dropShadow_1_10"/>
<feBlend mode="normal" in="SourceGraphic" in2="effect1_dropShadow_1_10" result="shape"/>
</filter>
<filter id="filter2_i_1_10" x="9.62073" y="1.452" width="155.669" height="86.056" filterUnits="userSpaceOnUse" color-interpolation-filters="sRGB">
<feFlood flood-opacity="0" result="BackgroundImageFix"/>
<feBlend mode="normal" in="SourceGraphic" in2="BackgroundImageFix" result="shape"/>
<feColorMatrix in="SourceAlpha" type="matrix" values="0 0 0 0 0 0 0 0 0 0 0 0 0 0 0 0 0 0 127 0" result="hardAlpha"/>
<feOffset dy="4"/>
<feGaussianBlur stdDeviation="2"/>
<feComposite in2="hardAlpha" operator="arithmetic" k2="-1" k3="1"/>
<feColorMatrix type="matrix" values="0 0 0 0 0 0 0 0 0 0 0 0 0 0 0 0 0 0 0.25 0"/>
<feBlend mode="normal" in2="shape" result="effect1_innerShadow_1_10"/>
</filter>
</defs>
</svg>
