<svg width="302" height="93" viewBox="0 0 302 93" fill="none" xmlns="http://www.w3.org/2000/svg">
<g filter="url(#filter0_d_1_4)">
<path d="M15.76 1.43051e-05C17.52 1.43051e-05 19.312 0.208014 21.136 0.624015C22.96 1.00802 24.528 1.53602 25.84 2.20801C25.52 3.77602 25.232 5.15202 24.976 6.33602C24.72 7.48802 24.464 8.68802 24.208 9.93602H21.136L20.656 4.70401C20.208 4.06401 19.504 3.58401 18.544 3.26402C17.616 2.91201 16.64 2.73601 15.616 2.73601C14.368 2.73601 13.248 3.08801 12.256 3.79201C11.264 4.49601 10.768 5.52001 10.768 6.86401C10.768 7.92002 11.152 8.81602 11.92 9.55201C12.72 10.256 13.728 10.912 14.944 11.52C16.192 12.096 17.504 12.704 18.88 13.344C20.256 13.984 21.552 14.752 22.768 15.648C24.016 16.512 25.024 17.6 25.792 18.912C26.592 20.224 26.992 21.856 26.992 23.808C26.992 25.92 26.4 27.648 25.216 28.992C24.032 30.304 22.496 31.264 20.608 31.872C18.752 32.48 16.768 32.784 14.656 32.784C12.704 32.784 10.784 32.544 8.89599 32.064C7.00799 31.584 5.37599 30.912 3.99999 30.048C4.35199 28.608 4.63999 27.328 4.86399 26.208C5.11999 25.056 5.35999 23.696 5.58399 22.128H8.70399L9.37599 28.368C10.112 28.88 10.896 29.28 11.728 29.568C12.592 29.856 13.488 30 14.416 30C15.92 30 17.232 29.632 18.352 28.896C19.504 28.128 20.08 26.88 20.08 25.152C20.08 23.808 19.696 22.72 18.928 21.888C18.192 21.056 17.232 20.352 16.048 19.776C14.864 19.2 13.6 18.64 12.256 18.096C10.944 17.552 9.69599 16.912 8.51199 16.176C7.32799 15.44 6.35199 14.496 5.58399 13.344C4.84799 12.192 4.47999 10.704 4.47999 8.88001C4.47999 6.89602 4.99199 5.24802 6.01599 3.93602C7.07199 2.62401 8.44799 1.64802 10.144 1.00802C11.872 0.336015 13.744 1.43051e-05 15.76 1.43051e-05ZM36.4896 25.92C36.9376 25.92 37.4016 25.968 37.8816 26.064C38.3616 26.16 38.8576 26.288 39.3696 26.448C39.6576 27.408 39.8016 28.368 39.8016 29.328C39.8016 30.256 39.6576 31.232 39.3696 32.256C38.8576 32.384 38.3616 32.496 37.8816 32.592C37.4016 32.72 36.9376 32.784 36.4896 32.784C35.9776 32.784 35.4816 32.72 35.0016 32.592C34.5536 32.496 34.0736 32.384 33.5616 32.256C33.2736 31.232 33.1296 30.256 33.1296 29.328C33.1296 28.368 33.2736 27.408 33.5616 26.448C34.0736 26.288 34.5536 26.16 35.0016 26.064C35.4816 25.968 35.9776 25.92 36.4896 25.92ZM58.18 1.43051e-05C59.94 1.43051e-05 61.732 0.208014 63.556 0.624015C65.38 1.00802 66.948 1.53602 68.26 2.20801C67.94 3.77602 67.652 5.15202 67.396 6.33602C67.14 7.48802 66.884 8.68802 66.628 9.93602H63.556L63.076 4.70401C62.628 4.06401 61.924 3.58401 60.964 3.26402C60.036 2.91201 59.06 2.73601 58.036 2.73601C56.788 2.73601 55.668 3.08801 54.676 3.79201C53.684 4.49601 53.188 5.52001 53.188 6.86401C53.188 7.92002 53.572 8.81602 54.34 9.55201C55.14 10.256 56.148 10.912 57.364 11.52C58.612 12.096 59.924 12.704 61.3 13.344C62.676 13.984 63.972 14.752 65.188 15.648C66.436 16.512 67.444 17.6 68.212 18.912C69.012 20.224 69.412 21.856 69.412 23.808C69.412 25.92 68.82 27.648 67.636 28.992C66.452 30.304 64.916 31.264 63.028 31.872C61.172 32.48 59.188 32.784 57.076 32.784C55.124 32.784 53.204 32.544 51.316 32.064C49.428 31.584 47.796 30.912 46.42 30.048C46.772 28.608 47.06 27.328 47.284 26.208C47.54 25.056 47.78 23.696 48.004 22.128H51.124L51.796 28.368C52.532 28.88 53.316 29.28 54.148 29.568C55.012 29.856 55.908 30 56.836 30C58.34 30 59.652 29.632 60.772 28.896C61.924 28.128 62.5 26.88 62.5 25.152C62.5 23.808 62.116 22.72 61.348 21.888C60.612 21.056 59.652 20.352 58.468 19.776C57.284 19.2 56.02 18.64 54.676 18.096C53.364 17.552 52.116 16.912 50.932 16.176C49.748 15.44 48.772 14.496 48.004 13.344C47.268 12.192 46.9 10.704 46.9 8.88001C46.9 6.89602 47.412 5.24802 48.436 3.93602C49.492 2.62401 50.868 1.64802 52.564 1.00802C54.292 0.336015 56.164 1.43051e-05 58.18 1.43051e-05ZM78.9096 25.92C79.3576 25.92 79.8216 25.968 80.3016 26.064C80.7816 26.16 81.2776 26.288 81.7896 26.448C82.0776 27.408 82.2216 28.368 82.2216 29.328C82.2216 30.256 82.0776 31.232 81.7896 32.256C81.2776 32.384 80.7816 32.496 80.3016 32.592C79.8216 32.72 79.3576 32.784 78.9096 32.784C78.3976 32.784 77.9016 32.72 77.4216 32.592C76.9736 32.496 76.4936 32.384 75.9816 32.256C75.6936 31.232 75.5496 30.256 75.5496 29.328C75.5496 28.368 75.6936 27.408 75.9816 26.448C76.4936 26.288 76.9736 26.16 77.4216 26.064C77.9016 25.968 78.3976 25.92 78.9096 25.92ZM84.7442 54.496V58.528C84.0082 58.4 83.3842 58.304 82.8722 58.24C82.3602 58.144 81.8002 58.08 81.1922 58.048C80.6162 57.984 79.8322 57.952 78.8402 57.952C78.0722 57.952 77.2402 57.968 76.3442 58C75.4802 58.032 74.5202 58.128 73.4642 58.288V54.736C74.5842 54.832 75.5442 54.912 76.3442 54.976C77.1762 55.008 77.9762 55.024 78.7442 55.024C79.7362 55.024 80.5362 55.008 81.1442 54.976C81.7522 54.912 82.3122 54.848 82.8242 54.784C83.3682 54.688 84.0082 54.592 84.7442 54.496ZM86.1362 50.512C86.1042 51.472 86.0562 52.432 85.9922 53.392C85.9602 54.32 85.9442 55.296 85.9442 56.32C85.9442 57.376 85.9602 58.512 85.9922 59.728C86.0562 60.912 86.1042 61.84 86.1362 62.512H83.4962L81.9122 57.52V55.456L83.4962 50.512H86.1362ZM91.9922 72.304C89.1762 72.208 83.1122 72.16 73.8002 72.16C72.6802 72.16 71.5922 72.176 70.5362 72.208C69.4802 72.208 68.0722 72.24 66.3122 72.304L65.7362 70.48L69.9602 69.472C70.0242 66.88 70.0722 64.336 70.1042 61.84C70.1682 59.312 70.2002 56.784 70.2002 54.256C70.2002 52.24 70.1682 50.384 70.1042 48.688C70.0722 46.992 70.0242 45.312 69.9602 43.648L65.7362 42.496L66.3602 40.624C67.9602 40.688 69.4002 40.736 70.6802 40.768C71.9602 40.8 73.0642 40.816 73.9922 40.816C74.9202 40.816 76.0402 40.816 77.3522 40.816C78.6642 40.816 80.0402 40.816 81.4802 40.816C82.9202 40.784 84.3122 40.768 85.6562 40.768C87.0002 40.736 88.1842 40.72 89.2082 40.72C90.2642 40.688 91.0322 40.656 91.5122 40.624C91.4162 42.64 91.3362 44.432 91.2722 46C91.2082 47.536 91.1602 48.912 91.1282 50.128H88.0562L87.1922 45.088C86.3922 44.672 85.4322 44.368 84.3122 44.176C83.1922 43.984 82.0082 43.888 80.7602 43.888C80.1842 43.888 79.5922 43.92 78.9842 43.984C78.4082 44.016 77.8162 44.064 77.2082 44.128C77.1762 47.008 77.1442 49.728 77.1122 52.288C77.1122 54.848 77.1122 57.312 77.1122 59.68C77.1122 61.152 77.1122 62.656 77.1122 64.192C77.1442 65.728 77.1762 67.328 77.2082 68.992C77.7522 69.056 78.3122 69.12 78.8882 69.184C79.4642 69.216 80.0402 69.232 80.6162 69.232C81.8962 69.232 83.1442 69.136 84.3602 68.944C85.5762 68.752 86.5842 68.448 87.3842 68.032L88.4882 62.224H91.5602C91.5602 63.696 91.5922 65.344 91.6562 67.168C91.7522 68.96 91.8642 70.672 91.9922 72.304ZM114.003 51.424C115.827 51.424 117.315 52.112 118.467 53.488C119.651 54.864 120.307 56.64 120.435 58.816C120.467 59.392 120.467 60.304 120.435 61.552C120.403 62.768 120.371 64.096 120.339 65.536C120.339 66.976 120.339 68.304 120.339 69.52L123.939 70.528L123.171 72.304C122.339 72.24 121.395 72.208 120.339 72.208C119.283 72.176 118.243 72.16 117.219 72.16C115.971 72.16 114.851 72.176 113.859 72.208C112.867 72.24 111.955 72.272 111.123 72.304L110.499 70.528L114.003 69.52C114.035 68.432 114.067 67.52 114.099 66.784C114.131 66.016 114.147 65.264 114.147 64.528C114.179 63.76 114.179 62.864 114.147 61.84C114.115 59.888 113.763 58.464 113.091 57.568C112.419 56.672 111.427 56.08 110.115 55.792C108.707 56.72 107.683 57.856 107.043 59.2C106.403 60.544 106.099 61.824 106.131 63.04L104.355 60.928C104.579 59.104 105.123 57.472 105.987 56.032C106.883 54.592 108.019 53.472 109.395 52.672C110.771 51.84 112.307 51.424 114.003 51.424ZM106.179 51.184C106.179 52.24 106.179 53.104 106.179 53.776C106.179 54.416 106.163 55.072 106.131 55.744C106.131 56.384 106.099 57.248 106.035 58.336L106.227 69.52L109.731 70.528L109.107 72.304C108.019 72.24 106.995 72.208 106.035 72.208C105.075 72.176 104.019 72.16 102.867 72.16C101.619 72.16 100.531 72.176 99.6032 72.208C98.7072 72.24 97.7952 72.272 96.8672 72.304L96.0992 70.528L99.6992 69.52C99.6992 68.496 99.7312 67.296 99.7952 65.92C99.8912 64.512 99.9392 63.184 99.9392 61.936C99.9392 61.008 99.9232 60.24 99.8912 59.632C99.8912 58.992 99.8592 58.336 99.7952 57.664C99.7312 56.96 99.6352 56.048 99.5072 54.928L95.7632 54.016L95.1872 52.192C97.0752 52.096 98.8512 51.968 100.515 51.808C102.211 51.616 104.099 51.408 106.179 51.184ZM135.077 45.808C135.013 46.928 134.965 48.24 134.933 49.744C134.901 51.216 134.869 52.752 134.837 54.352C134.837 55.92 134.837 57.424 134.837 58.864C134.869 60.304 134.885 61.552 134.885 62.608C134.917 63.664 134.949 64.4 134.981 64.816C135.045 66 135.253 66.832 135.605 67.312C135.957 67.792 136.517 68.032 137.285 68.032C137.829 68.032 138.405 67.936 139.013 67.744C139.621 67.552 140.421 67.152 141.413 66.544L142.373 68.464C141.573 69.136 140.709 69.808 139.781 70.48C138.885 71.152 137.893 71.712 136.805 72.16C135.749 72.576 134.565 72.784 133.253 72.784C132.517 72.784 131.797 72.624 131.093 72.304C130.389 72.016 129.813 71.504 129.365 70.768C128.949 70 128.741 68.976 128.741 67.696C128.741 67.728 128.741 67.44 128.741 66.832C128.773 66.224 128.789 65.424 128.789 64.432C128.821 63.408 128.853 62.336 128.885 61.216C128.917 60.096 128.933 59.04 128.933 58.048C128.965 57.056 128.981 56.256 128.981 55.648C129.013 55.008 129.029 54.72 129.029 54.784C128.997 54.432 128.789 54.128 128.405 53.872C128.053 53.616 127.637 53.392 127.157 53.2C126.677 53.008 126.245 52.832 125.861 52.672C125.477 52.512 125.269 52.336 125.237 52.144C126.005 52.016 126.661 51.888 127.205 51.76C127.749 51.632 128.341 51.488 128.981 51.328C129.685 50.4 130.309 49.536 130.853 48.736C131.429 47.904 132.085 46.928 132.821 45.808C133.109 45.808 133.477 45.808 133.925 45.808C134.373 45.808 134.757 45.808 135.077 45.808ZM141.701 52.096V55.6L125.237 54.64V52.144L141.701 52.096ZM154.215 51.328C155.815 51.328 157.287 51.68 158.631 52.384C160.007 53.088 161.095 54.16 161.895 55.6C162.727 57.008 163.143 58.784 163.143 60.928C162.439 61.056 161.511 61.168 160.359 61.264C159.207 61.36 157.943 61.44 156.567 61.504C155.191 61.536 153.815 61.552 152.439 61.552C151.415 61.552 150.535 61.536 149.799 61.504C149.063 61.472 148.567 61.44 148.311 61.408V59.104C148.663 59.104 149.191 59.104 149.895 59.104C150.631 59.104 151.447 59.088 152.343 59.056C153.239 59.024 154.103 58.976 154.935 58.912C155.799 58.848 156.519 58.768 157.095 58.672C157.063 58 156.871 57.328 156.519 56.656C156.199 55.952 155.703 55.36 155.031 54.88C154.359 54.4 153.495 54.16 152.439 54.16C151.799 54.768 151.287 55.616 150.903 56.704C150.519 57.76 150.327 58.992 150.327 60.4C150.327 63.28 150.919 65.408 152.103 66.784C153.319 68.128 154.807 68.8 156.567 68.8C158.359 68.8 160.247 68.16 162.231 66.88L163.287 69.088C161.911 70.336 160.439 71.232 158.871 71.776C157.303 72.32 155.751 72.592 154.215 72.592C152.423 72.592 150.743 72.208 149.175 71.44C147.639 70.64 146.391 69.456 145.431 67.888C144.503 66.32 144.039 64.368 144.039 62.032C144.039 59.664 144.519 57.696 145.479 56.128C146.471 54.528 147.735 53.328 149.271 52.528C150.839 51.728 152.487 51.328 154.215 51.328ZM176.076 51.472C176.108 52.208 176.156 53.072 176.22 54.064C176.284 55.056 176.348 55.968 176.412 56.8C176.476 57.6 176.508 58.144 176.508 58.432L176.844 69.328L181.596 70.528L180.876 72.304C180.332 72.272 179.612 72.256 178.716 72.256C177.82 72.224 176.892 72.208 175.932 72.208C174.972 72.176 174.108 72.16 173.34 72.16C172.348 72.16 171.276 72.176 170.124 72.208C168.972 72.24 167.916 72.272 166.956 72.304L166.236 70.528L170.124 69.52C170.124 68.08 170.124 66.8 170.124 65.68C170.124 64.528 170.124 63.28 170.124 61.936C170.124 61.2 170.108 60.528 170.076 59.92C170.076 59.28 170.06 58.576 170.028 57.808C169.996 57.008 169.932 56.032 169.836 54.88L166.572 54.352L165.9 52.336C166.636 52.304 167.612 52.256 168.828 52.192C170.076 52.128 171.356 52.032 172.668 51.904C173.98 51.776 175.116 51.632 176.076 51.472ZM182.508 51.376C183.404 51.376 184.236 51.552 185.004 51.904C185.772 52.224 186.508 52.752 187.212 53.488C187.02 54.448 186.844 55.28 186.684 55.984C186.524 56.688 186.332 57.392 186.108 58.096C185.916 58.768 185.676 59.6 185.388 60.592H182.7C182.476 59.408 182.14 58.384 181.692 57.52C181.276 56.624 180.7 56.016 179.964 55.696C179.164 56.208 178.396 57.168 177.66 58.576C176.956 59.952 176.604 61.792 176.604 64.096L174.732 61.312C174.988 59.52 175.484 57.872 176.22 56.368C176.956 54.864 177.852 53.664 178.908 52.768C179.996 51.84 181.196 51.376 182.508 51.376ZM200.72 51.424C200.784 52.576 200.848 53.616 200.912 54.544C201.008 55.472 201.072 56.256 201.104 56.896C201.072 57.92 201.056 58.928 201.056 59.92C201.056 60.912 201.056 61.968 201.056 63.088C201.056 64.176 201.056 65.296 201.056 66.448C201.056 67.568 201.072 68.832 201.104 70.24C201.136 71.616 201.168 73.232 201.2 75.088C201.232 76.976 201.264 79.2 201.296 81.76L206.096 82.912L205.424 84.784C204.592 84.72 203.536 84.672 202.256 84.64C200.976 84.608 199.632 84.592 198.224 84.592C196.656 84.592 195.376 84.608 194.384 84.64C193.392 84.672 192.432 84.72 191.504 84.784L190.784 82.912L194.576 81.952C194.64 81.312 194.672 80.416 194.672 79.264C194.704 78.112 194.72 76.864 194.72 75.52C194.752 74.208 194.768 72.992 194.768 71.872C194.768 70.72 194.768 69.856 194.768 69.28C194.768 67.808 194.752 66.4 194.72 65.056C194.72 63.712 194.688 62.24 194.624 60.64C194.592 59.04 194.512 57.12 194.384 54.88L190.352 54.16L189.824 52.192C190.368 52.16 191.104 52.128 192.032 52.096C192.96 52.064 193.952 52.032 195.008 52C196.064 51.936 197.088 51.856 198.08 51.76C199.104 51.664 199.984 51.552 200.72 51.424ZM207.728 51.376C209.552 51.376 211.072 51.872 212.288 52.864C213.536 53.824 214.464 55.088 215.072 56.656C215.68 58.192 215.984 59.824 215.984 61.552C215.984 63.376 215.632 65.136 214.928 66.832C214.224 68.496 213.168 69.872 211.76 70.96C210.352 72.016 208.576 72.544 206.432 72.544C204.672 72.544 203.12 72.048 201.776 71.056C200.464 70.064 199.328 68.8 198.368 67.264L199.376 65.248C199.856 66.272 200.624 67.184 201.68 67.984C202.768 68.784 203.936 69.184 205.184 69.184C206.144 69.184 206.944 68.864 207.584 68.224C208.224 67.552 208.704 66.688 209.024 65.632C209.344 64.576 209.504 63.472 209.504 62.32C209.504 61.168 209.344 60.048 209.024 58.96C208.704 57.84 208.208 56.896 207.536 56.128C206.864 55.36 206 54.912 204.944 54.784C204.496 54.88 203.952 55.264 203.312 55.936C202.704 56.608 202.176 57.44 201.728 58.432C201.28 59.424 201.056 60.464 201.056 61.552L199.712 58.336C200 56.8 200.544 55.52 201.344 54.496C202.176 53.472 203.152 52.704 204.272 52.192C205.392 51.648 206.544 51.376 207.728 51.376ZM229.09 51.472C229.122 52.208 229.17 53.072 229.234 54.064C229.298 55.056 229.362 55.968 229.426 56.8C229.49 57.6 229.522 58.144 229.522 58.432L229.858 69.328L234.61 70.528L233.89 72.304C233.346 72.272 232.626 72.256 231.73 72.256C230.834 72.224 229.906 72.208 228.946 72.208C227.986 72.176 227.122 72.16 226.354 72.16C225.362 72.16 224.29 72.176 223.138 72.208C221.986 72.24 220.93 72.272 219.97 72.304L219.25 70.528L223.138 69.52C223.138 68.08 223.138 66.8 223.138 65.68C223.138 64.528 223.138 63.28 223.138 61.936C223.138 61.2 223.122 60.528 223.09 59.92C223.09 59.28 223.074 58.576 223.042 57.808C223.01 57.008 222.946 56.032 222.85 54.88L219.586 54.352L218.914 52.336C219.65 52.304 220.626 52.256 221.842 52.192C223.09 52.128 224.37 52.032 225.682 51.904C226.994 51.776 228.13 51.632 229.09 51.472ZM235.522 51.376C236.418 51.376 237.25 51.552 238.018 51.904C238.786 52.224 239.522 52.752 240.226 53.488C240.034 54.448 239.858 55.28 239.698 55.984C239.538 56.688 239.346 57.392 239.122 58.096C238.93 58.768 238.69 59.6 238.402 60.592H235.714C235.49 59.408 235.154 58.384 234.706 57.52C234.29 56.624 233.714 56.016 232.978 55.696C232.178 56.208 231.41 57.168 230.674 58.576C229.97 59.952 229.618 61.792 229.618 64.096L227.746 61.312C228.002 59.52 228.498 57.872 229.234 56.368C229.97 54.864 230.866 53.664 231.922 52.768C233.01 51.84 234.21 51.376 235.522 51.376ZM253.302 51.424C253.27 53.28 253.222 55.056 253.158 56.752C253.126 58.448 253.11 59.984 253.11 61.36C253.11 62.544 253.126 63.904 253.158 65.44C253.222 66.976 253.27 68.336 253.302 69.52L257.142 70.528L256.326 72.304C255.494 72.24 254.646 72.208 253.782 72.208C252.95 72.176 251.686 72.16 249.99 72.16C248.422 72.16 247.19 72.176 246.294 72.208C245.43 72.24 244.502 72.272 243.51 72.304L242.742 70.528L246.822 69.52C246.886 67.92 246.918 66.528 246.918 65.344C246.95 64.16 246.95 62.864 246.918 61.456C246.918 60.72 246.902 60.064 246.87 59.488C246.87 58.912 246.854 58.272 246.822 57.568C246.79 56.832 246.726 55.904 246.63 54.784L243.222 54.16L242.502 52.336C243.238 52.304 244.182 52.256 245.334 52.192C246.518 52.128 247.798 52.032 249.174 51.904C250.55 51.776 251.926 51.616 253.302 51.424ZM249.702 47.872C248.678 47.872 247.798 47.488 247.062 46.72C246.326 45.952 245.958 45.008 245.958 43.888C245.958 42.832 246.326 41.92 247.062 41.152C247.798 40.384 248.678 40 249.702 40C250.726 40 251.606 40.384 252.342 41.152C253.078 41.92 253.446 42.832 253.446 43.888C253.446 45.008 253.078 45.952 252.342 46.72C251.606 47.488 250.726 47.872 249.702 47.872ZM259.095 71.056C259.351 69.84 259.559 68.832 259.719 68.032C259.911 67.2 260.071 66.304 260.199 65.344H262.599L263.367 69.088C263.783 69.44 264.279 69.712 264.855 69.904C265.431 70.096 266.007 70.192 266.583 70.192C267.383 70.192 268.087 70 268.695 69.616C269.335 69.232 269.655 68.64 269.655 67.84C269.655 67.168 269.399 66.624 268.887 66.208C268.407 65.76 267.783 65.376 267.015 65.056C266.247 64.704 265.431 64.368 264.567 64.048C263.703 63.696 262.887 63.264 262.119 62.752C261.351 62.24 260.711 61.6 260.199 60.832C259.719 60.064 259.479 59.088 259.479 57.904C259.479 56.272 259.879 54.992 260.679 54.064C261.479 53.104 262.519 52.416 263.799 52C265.111 51.584 266.487 51.376 267.927 51.376C269.047 51.376 270.215 51.504 271.431 51.76C272.647 52.016 273.751 52.384 274.743 52.864C274.487 53.984 274.247 54.976 274.023 55.84C273.831 56.704 273.655 57.552 273.495 58.384L270.999 58.336L270.375 55.072C269.799 54.304 268.855 53.92 267.543 53.92C266.839 53.92 266.183 54.08 265.575 54.4C264.999 54.72 264.711 55.248 264.711 55.984C264.711 56.688 264.967 57.264 265.479 57.712C265.991 58.128 266.647 58.496 267.447 58.816C268.279 59.136 269.159 59.488 270.087 59.872C271.015 60.224 271.879 60.672 272.679 61.216C273.511 61.76 274.183 62.464 274.695 63.328C275.207 64.16 275.463 65.232 275.463 66.544C275.463 68.08 275.047 69.312 274.215 70.24C273.383 71.136 272.279 71.792 270.903 72.208C269.527 72.592 268.039 72.784 266.439 72.784C265.223 72.784 263.991 72.656 262.743 72.4C261.495 72.144 260.279 71.696 259.095 71.056ZM288.553 51.328C290.153 51.328 291.625 51.68 292.969 52.384C294.345 53.088 295.433 54.16 296.233 55.6C297.065 57.008 297.481 58.784 297.481 60.928C296.777 61.056 295.849 61.168 294.697 61.264C293.545 61.36 292.281 61.44 290.905 61.504C289.529 61.536 288.153 61.552 286.777 61.552C285.753 61.552 284.873 61.536 284.137 61.504C283.401 61.472 282.905 61.44 282.649 61.408V59.104C283.001 59.104 283.529 59.104 284.233 59.104C284.969 59.104 285.785 59.088 286.681 59.056C287.577 59.024 288.441 58.976 289.273 58.912C290.137 58.848 290.857 58.768 291.433 58.672C291.401 58 291.209 57.328 290.857 56.656C290.537 55.952 290.041 55.36 289.369 54.88C288.697 54.4 287.833 54.16 286.777 54.16C286.137 54.768 285.625 55.616 285.241 56.704C284.857 57.76 284.665 58.992 284.665 60.4C284.665 63.28 285.257 65.408 286.441 66.784C287.657 68.128 289.145 68.8 290.905 68.8C292.697 68.8 294.585 68.16 296.569 66.88L297.625 69.088C296.249 70.336 294.777 71.232 293.209 71.776C291.641 72.32 290.089 72.592 288.553 72.592C286.761 72.592 285.081 72.208 283.513 71.44C281.977 70.64 280.729 69.456 279.769 67.888C278.841 66.32 278.377 64.368 278.377 62.032C278.377 59.664 278.857 57.696 279.817 56.128C280.809 54.528 282.073 53.328 283.609 52.528C285.177 51.728 286.825 51.328 288.553 51.328Z" fill="#E72517"/>
</g>
<defs>
<filter id="filter0_d_1_4" x="0" y="0" width="301.625" height="92.784" filterUnits="userSpaceOnUse" color-interpolation-filters="sRGB">
<feFlood flood-opacity="0" result="BackgroundImageFix"/>
<feColorMatrix in="SourceAlpha" type="matrix" values="0 0 0 0 0 0 0 0 0 0 0 0 0 0 0 0 0 0 127 0" result="hardAlpha"/>
<feOffset dy="4"/>
<feGaussianBlur stdDeviation="2"/>
<feComposite in2="hardAlpha" operator="out"/>
<feColorMatrix type="matrix" values="0 0 0 0 0 0 0 0 0 0 0 0 0 0 0 0 0 0 0.25 0"/>
<feBlend mode="normal" in2="BackgroundImageFix" result="effect1_dropShadow_1_4"/>
<feBlend mode="normal" in="SourceGraphic" in2="effect1_dropShadow_1_4" result="shape"/>
</filter>
</defs>
</svg>
